<svg width="33" height="32" viewBox="0 0 33 32" fill="none" xmlns="http://www.w3.org/2000/svg">
<rect x="0.125" width="32" height="32" rx="16" fill="#FE964A"/>
<g clip-path="url(#clip0_1763_15817)">
<path d="M12.125 16H10.7917C10.4381 16 10.0989 15.8595 9.8489 15.6095C9.59885 15.3594 9.45837 15.0203 9.45837 14.6667V11.3333C9.45837 10.9797 9.59885 10.6406 9.8489 10.3905C10.0989 10.1405 10.4381 10 10.7917 10H21.4584C21.812 10 22.1511 10.1405 22.4012 10.3905C22.6512 10.6406 22.7917 10.9797 22.7917 11.3333V14.6667C22.7917 15.0203 22.6512 15.3594 22.4012 15.6095C22.1511 15.8595 21.812 16 21.4584 16H20.125M12.125 13.3333H20.125M20.325 19.8C20.6071 20.0949 20.7712 20.4831 20.7861 20.8909C20.8011 21.2987 20.6659 21.6979 20.4062 22.0127C20.1464 22.3274 19.7803 22.536 19.377 22.5988C18.9738 22.6616 18.5615 22.5742 18.2184 22.3533C17.9953 22.207 17.8101 22.0099 17.6779 21.7781C17.5458 21.5463 17.4706 21.2865 17.4584 21.02V16M12.525 18.4C12.3675 18.5545 12.2508 18.7456 12.1853 18.9563C12.1198 19.1669 12.1076 19.3906 12.1498 19.6071C12.192 19.8236 12.2873 20.0263 12.4271 20.197C12.5669 20.3677 12.7468 20.501 12.9508 20.585C13.1548 20.669 13.3765 20.701 13.5959 20.6783C13.8154 20.6556 14.0257 20.5787 14.2082 20.4547C14.3906 20.3306 14.5394 20.1633 14.6413 19.9675C14.7431 19.7718 14.7948 19.5539 14.7917 19.3333V16" stroke="white" stroke-width="1.3" stroke-linecap="round" stroke-linejoin="round"/>
</g>
<defs>
<clipPath id="clip0_1763_15817">
<rect width="16" height="16" fill="white" transform="translate(8.125 8)"/>
</clipPath>
</defs>
</svg>
