<svg width="33" height="32" viewBox="0 0 33 32" fill="none" xmlns="http://www.w3.org/2000/svg">
<rect x="0.041626" width="32" height="32" rx="16" fill="#8C62FF"/>
<path d="M14.0416 22.6667V20H18.0416V22.6667M13.3749 12H13.3816M18.7083 12H18.7149M16.0416 12H16.0483M16.0416 14.6667H16.0483M16.0416 17.3333H16.0483M18.7083 14.6667H18.7149M18.7083 17.3333H18.7149M13.3749 14.6667H13.3816M13.3749 17.3333H13.3816M12.0416 9.33334H20.0416C20.778 9.33334 21.3749 9.9303 21.3749 10.6667V21.3333C21.3749 22.0697 20.778 22.6667 20.0416 22.6667H12.0416C11.3052 22.6667 10.7083 22.0697 10.7083 21.3333V10.6667C10.7083 9.9303 11.3052 9.33334 12.0416 9.33334Z" stroke="white" stroke-width="1.3" stroke-linecap="round" stroke-linejoin="round"/>
</svg>
