<svg width="33" height="32" viewBox="0 0 33 32" fill="none" xmlns="http://www.w3.org/2000/svg">
<rect x="0.041626" width="32" height="32" rx="16" fill="#FE964A"/>
<g clip-path="url(#clip0_1763_15809)">
<path d="M14.0417 12L12.375 10.3333C12.204 10.1405 11.9652 10.021 11.7083 10C11.1637 10 10.7083 10.4553 10.7083 11V19.3333C10.7083 19.687 10.8488 20.0261 11.0989 20.2761C11.3489 20.5262 11.688 20.6667 12.0417 20.6667H20.0417C20.3953 20.6667 20.7344 20.5262 20.9845 20.2761C21.2345 20.0261 21.375 19.687 21.375 19.3333V16M14.7083 11.3333L13.375 12.6667M9.375 16H22.7083M12.7083 20.6667V22M19.375 20.6667V22" stroke="white" stroke-width="1.3" stroke-linecap="round" stroke-linejoin="round"/>
</g>
<defs>
<clipPath id="clip0_1763_15809">
<rect width="16" height="16" fill="white" transform="translate(8.04163 8)"/>
</clipPath>
</defs>
</svg>
