<svg width="33" height="32" viewBox="0 0 33 32" fill="none" xmlns="http://www.w3.org/2000/svg">
<rect x="0.208252" width="32" height="32" rx="16" fill="#8C62FF"/>
<g clip-path="url(#clip0_1763_15825)">
<path d="M15.5416 13.3333C16.875 11.3333 14.2083 11.3333 15.5416 9.33333M18.5416 13.3333C19.875 11.3333 17.2083 11.3333 18.5416 9.33333M12.2083 14.6667H12.215M12.2083 17.3333H12.215M14.875 18.6667V16M17.5416 18.6667V16M20.2083 18.6667V16M21.5416 12C21.8952 12 22.2344 12.1405 22.4844 12.3905C22.7345 12.6406 22.875 12.9797 22.875 13.3333V20C22.875 20.3536 22.7345 20.6928 22.4844 20.9428C22.2344 21.1929 21.8952 21.3333 21.5416 21.3333H10.875C10.5213 21.3333 10.1822 21.1929 9.93215 20.9428C9.6821 20.6928 9.54163 20.3536 9.54163 20V13.3333C9.54163 12.9797 9.6821 12.6406 9.93215 12.3905C10.1822 12.1405 10.5213 12 10.875 12H12.875M11.5416 21.3333V22.6667M20.875 21.3333V22.6667" stroke="white" stroke-width="1.3" stroke-linecap="round" stroke-linejoin="round"/>
</g>
<defs>
<clipPath id="clip0_1763_15825">
<rect width="16" height="16" fill="white" transform="translate(8.20825 8)"/>
</clipPath>
</defs>
</svg>
