<svg width="33" height="32" viewBox="0 0 33 32" fill="none" xmlns="http://www.w3.org/2000/svg">
<rect x="0.958252" width="32" height="32" rx="16" fill="#2F78EE"/>
<path d="M12.9583 19.3333H20.9583M20.2916 22C20.4685 22 20.638 21.9298 20.763 21.8047C20.8881 21.6797 20.9583 21.5101 20.9583 21.3333V17.7667C20.9583 17.462 21.169 17.204 21.443 17.0727C22.0103 16.802 22.4638 16.3397 22.7234 15.7673C22.983 15.1948 23.0321 14.5491 22.8619 13.944C22.6918 13.3389 22.3133 12.8133 21.7934 12.4601C21.2735 12.1069 20.6455 11.9486 20.0203 12.0133C19.7628 11.4148 19.3356 10.9049 18.7914 10.5466C18.2472 10.1883 17.6099 9.9973 16.9583 9.9973C16.3067 9.9973 15.6695 10.1883 15.1253 10.5466C14.5811 10.9049 14.1538 11.4148 13.8963 12.0133C13.2714 11.9491 12.6438 12.1075 12.1243 12.4608C11.6047 12.814 11.2266 13.3393 11.0565 13.9441C10.8864 14.5488 10.9353 15.1943 11.1946 15.7665C11.4538 16.3388 11.9068 16.8011 12.4736 17.072C12.7476 17.204 12.9583 17.462 12.9583 17.766V21.3333C12.9583 21.5101 13.0285 21.6797 13.1536 21.8047C13.2786 21.9298 13.4482 22 13.625 22H20.2916Z" stroke="white" stroke-width="1.3" stroke-linecap="round" stroke-linejoin="round"/>
</svg>
