<svg width="33" height="32" viewBox="0 0 33 32" fill="none" xmlns="http://www.w3.org/2000/svg">
<rect x="0.208252" width="32" height="32" rx="16" fill="#2DD4BF"/>
<path d="M10.2083 12H12.2083M19.5416 12H19.5483M16.2083 20C18.0492 20 19.5416 18.5076 19.5416 16.6667C19.5416 14.8257 18.0492 13.3333 16.2083 13.3333M16.2083 20C14.3673 20 12.8749 18.5076 12.8749 16.6667C12.8749 14.8257 14.3673 13.3333 16.2083 13.3333M16.2083 20C16.6503 20 17.0742 19.8244 17.3868 19.5118C17.6993 19.1993 17.8749 18.7754 17.8749 18.3333C17.8749 17.8913 17.6993 17.4674 17.3868 17.1548C17.0742 16.8423 16.6503 16.6667 16.2083 16.6667C15.7662 16.6667 15.3423 16.4911 15.0297 16.1785C14.7172 15.8659 14.5416 15.442 14.5416 15C14.5416 14.558 14.7172 14.134 15.0297 13.8215C15.3423 13.5089 15.7662 13.3333 16.2083 13.3333M11.5416 9.33333H20.8749C21.6113 9.33333 22.2083 9.93028 22.2083 10.6667V21.3333C22.2083 22.0697 21.6113 22.6667 20.8749 22.6667H11.5416C10.8052 22.6667 10.2083 22.0697 10.2083 21.3333V10.6667C10.2083 9.93028 10.8052 9.33333 11.5416 9.33333Z" stroke="white" stroke-width="1.3" stroke-linecap="round" stroke-linejoin="round"/>
</svg>
