<svg width="33" height="32" viewBox="0 0 33 32" fill="none" xmlns="http://www.w3.org/2000/svg">
<rect x="0.041626" width="32" height="32" rx="16" fill="#2DD4BF"/>
<path d="M10.7083 10.6667L12.3749 12.3333M17.0416 12.3333C16.4206 11.7248 15.5846 11.3859 14.7152 11.3903C13.8457 11.3947 13.0132 11.742 12.3984 12.3568C11.7836 12.9716 11.4363 13.8041 11.4319 14.6736C11.4275 15.543 11.7664 16.379 12.3749 17M18.0416 11.3333L11.3749 18M17.3749 19.3333V19.34M14.7083 18.6667V18.6733M16.7083 16.6667V16.6733M18.7083 14.6667V14.6733M15.3749 21.3333V21.34M19.3749 17.3333V17.34M21.3749 15.3333V15.34" stroke="white" stroke-width="1.3" stroke-linecap="round" stroke-linejoin="round"/>
</svg>
