<svg width="32" height="32" viewBox="0 0 32 32" fill="none" xmlns="http://www.w3.org/2000/svg">
<path d="M7.99996 16H5.33329C4.62605 16 3.94777 15.719 3.44767 15.219C2.94758 14.7189 2.66663 14.0406 2.66663 13.3333V6.66667C2.66663 5.95942 2.94758 5.28115 3.44767 4.78105C3.94777 4.28095 4.62605 4 5.33329 4H26.6666C27.3739 4 28.0521 4.28095 28.5522 4.78105C29.0523 5.28115 29.3333 5.95942 29.3333 6.66667V13.3333C29.3333 14.0406 29.0523 14.7189 28.5522 15.219C28.0521 15.719 27.3739 16 26.6666 16H24M7.99996 10.6667H24M24.4 23.6C24.9641 24.1898 25.2922 24.9662 25.3221 25.7818C25.352 26.5975 25.0816 27.3958 24.5622 28.0253C24.0428 28.6549 23.3104 29.072 22.5039 29.1976C21.6974 29.3232 20.8729 29.1485 20.1866 28.7067C19.7404 28.4141 19.37 28.0198 19.1058 27.5562C18.8415 27.0927 18.691 26.573 18.6666 26.04V16M8.79996 20.8C8.4849 21.1089 8.25141 21.4912 8.12043 21.9125C7.98945 22.3339 7.96506 22.7811 8.04946 23.2142C8.13386 23.6473 8.3244 24.0527 8.60401 24.394C8.88362 24.7353 9.24356 25.0019 9.65156 25.1699C10.0596 25.3379 10.5029 25.4021 10.9417 25.3566C11.3806 25.3111 11.8014 25.1574 12.1663 24.9093C12.5311 24.6613 12.8288 24.3265 13.0324 23.9351C13.2361 23.5437 13.3395 23.1079 13.3333 22.6667V16" stroke="#6938EF" stroke-width="1.5" stroke-linecap="round" stroke-linejoin="round"/>
</svg>
