<svg width="32" height="32" viewBox="0 0 32 32" fill="none" xmlns="http://www.w3.org/2000/svg">
<path d="M13.3334 29.3332V20.5732" stroke="#6938EF" stroke-width="1.5" stroke-linecap="round" stroke-linejoin="round"/>
<path d="M16 14.6667H16.0133" stroke="#6938EF" stroke-width="1.5" stroke-linecap="round" stroke-linejoin="round"/>
<path d="M16 9.33325H16.0133" stroke="#6938EF" stroke-width="1.5" stroke-linecap="round" stroke-linejoin="round"/>
<path d="M18.6666 20.5732V29.3332" stroke="#6938EF" stroke-width="1.5" stroke-linecap="round" stroke-linejoin="round"/>
<path d="M20 21.3333C18.846 20.4679 17.4425 20 16 20C14.5575 20 13.154 20.4679 12 21.3333" stroke="#6938EF" stroke-width="1.5" stroke-linecap="round" stroke-linejoin="round"/>
<path d="M21.3334 14.6667H21.3467" stroke="#6938EF" stroke-width="1.5" stroke-linecap="round" stroke-linejoin="round"/>
<path d="M21.3334 9.33325H21.3467" stroke="#6938EF" stroke-width="1.5" stroke-linecap="round" stroke-linejoin="round"/>
<path d="M10.6666 14.6667H10.68" stroke="#6938EF" stroke-width="1.5" stroke-linecap="round" stroke-linejoin="round"/>
<path d="M10.6666 9.33325H10.68" stroke="#6938EF" stroke-width="1.5" stroke-linecap="round" stroke-linejoin="round"/>
<path d="M24 2.66675H8.00004C6.52728 2.66675 5.33337 3.86066 5.33337 5.33341V26.6667C5.33337 28.1395 6.52728 29.3334 8.00004 29.3334H24C25.4728 29.3334 26.6667 28.1395 26.6667 26.6667V5.33341C26.6667 3.86066 25.4728 2.66675 24 2.66675Z" stroke="#6938EF" stroke-width="1.5" stroke-linecap="round" stroke-linejoin="round"/>
</svg>
