<svg width="32" height="32" viewBox="0 0 32 32" fill="none" xmlns="http://www.w3.org/2000/svg">
<path d="M14.6666 10.6667C17.3333 6.66675 12 6.66675 14.6666 2.66675M20.6666 10.6667C23.3333 6.66675 18 6.66675 20.6666 2.66675M7.99996 13.3334H8.01329M7.99996 18.6667H8.01329M13.3333 21.3334V16.0001M18.6666 21.3334V16.0001M24 21.3334V16.0001M26.6666 8.00008C27.3739 8.00008 28.0521 8.28103 28.5522 8.78113C29.0523 9.28123 29.3333 9.9595 29.3333 10.6667V24.0001C29.3333 24.7073 29.0523 25.3856 28.5522 25.8857C28.0521 26.3858 27.3739 26.6667 26.6666 26.6667H5.33329C4.62605 26.6667 3.94777 26.3858 3.44767 25.8857C2.94758 25.3856 2.66663 24.7073 2.66663 24.0001V10.6667C2.66663 9.9595 2.94758 9.28123 3.44767 8.78113C3.94777 8.28103 4.62605 8.00008 5.33329 8.00008H9.33329M6.66663 26.6667V29.3334M25.3333 26.6667V29.3334" stroke="#6938EF" stroke-width="1.5" stroke-linecap="round" stroke-linejoin="round"/>
</svg>
