<svg width="32" height="32" viewBox="0 0 32 32" fill="none" xmlns="http://www.w3.org/2000/svg">
<path d="M7.99999 22.6667H24M22.6667 28C23.0203 28 23.3594 27.8596 23.6095 27.6095C23.8595 27.3595 24 27.0203 24 26.6667V19.5334C24 18.924 24.4213 18.408 24.9693 18.1454C26.104 17.6041 27.0109 16.6794 27.5302 15.5346C28.0494 14.3897 28.1475 13.0982 27.8072 11.888C27.4669 10.6778 26.7101 9.62671 25.6702 8.92023C24.6304 8.21375 23.3744 7.89729 22.124 8.0267C21.609 6.82965 20.7545 5.80977 19.6661 5.09315C18.5777 4.37654 17.3031 3.99463 16 3.99463C14.6969 3.99463 13.4223 4.37654 12.3339 5.09315C11.2455 5.80977 10.391 6.82965 9.87599 8.0267C8.6261 7.8982 7.37097 8.21511 6.3319 8.92155C5.29283 9.628 4.53654 10.6786 4.19637 11.8882C3.8562 13.0977 3.954 14.3885 4.47253 15.533C4.99105 16.6775 5.897 17.6022 7.03065 18.144C7.57865 18.408 7.99999 18.924 7.99999 19.532V26.6667C7.99999 27.0203 8.14046 27.3595 8.39051 27.6095C8.64056 27.8596 8.9797 28 9.33332 28H22.6667Z" stroke="#6938EF" stroke-width="1.5" stroke-linecap="round" stroke-linejoin="round"/>
</svg>
