<svg width="32" height="32" viewBox="0 0 32 32" fill="none" xmlns="http://www.w3.org/2000/svg">
<path d="M4 8.00008H8M22.6667 8.00008H22.68M16 24.0001C19.6819 24.0001 22.6667 21.0153 22.6667 17.3334C22.6667 13.6515 19.6819 10.6667 16 10.6667M16 24.0001C12.3181 24.0001 9.33333 21.0153 9.33333 17.3334C9.33333 13.6515 12.3181 10.6667 16 10.6667M16 24.0001C16.8841 24.0001 17.7319 23.6489 18.357 23.0238C18.9821 22.3986 19.3333 21.5508 19.3333 20.6667C19.3333 19.7827 18.9821 18.9348 18.357 18.3097C17.7319 17.6846 16.8841 17.3334 16 17.3334C15.1159 17.3334 14.2681 16.9822 13.643 16.3571C13.0179 15.732 12.6667 14.8841 12.6667 14.0001C12.6667 13.116 13.0179 12.2682 13.643 11.6431C14.2681 11.0179 15.1159 10.6667 16 10.6667M6.66667 2.66675H25.3333C26.8061 2.66675 28 3.86066 28 5.33341V26.6667C28 28.1395 26.8061 29.3334 25.3333 29.3334H6.66667C5.19391 29.3334 4 28.1395 4 26.6667V5.33341C4 3.86066 5.19391 2.66675 6.66667 2.66675Z" stroke="#6938EF" stroke-width="1.5" stroke-linecap="round" stroke-linejoin="round"/>
</svg>
