<svg width="33" height="32" viewBox="0 0 33 32" fill="none" xmlns="http://www.w3.org/2000/svg">
<path d="M13.8333 29.3333V20.5733" stroke="#6938EF" stroke-width="1.5" stroke-linecap="round" stroke-linejoin="round"/>
<path d="M16.5 14.6667H16.5133" stroke="#6938EF" stroke-width="2" stroke-linecap="round" stroke-linejoin="round"/>
<path d="M16.5 9.33333H16.5133" stroke="#6938EF" stroke-width="2" stroke-linecap="round" stroke-linejoin="round"/>
<path d="M19.1667 20.5733V29.3333" stroke="#6938EF" stroke-width="1.5" stroke-linecap="round" stroke-linejoin="round"/>
<path d="M20.5 21.3333C19.346 20.4679 17.9425 20 16.5 20C15.0575 20 13.654 20.4679 12.5 21.3333" stroke="#6938EF" stroke-width="1.5" stroke-linecap="round" stroke-linejoin="round"/>
<path d="M21.8333 14.6667H21.8466" stroke="#6938EF" stroke-width="2" stroke-linecap="round" stroke-linejoin="round"/>
<path d="M21.8333 9.33333H21.8466" stroke="#6938EF" stroke-width="2" stroke-linecap="round" stroke-linejoin="round"/>
<path d="M11.1667 14.6667H11.18" stroke="#6938EF" stroke-width="2" stroke-linecap="round" stroke-linejoin="round"/>
<path d="M11.1667 9.33333H11.18" stroke="#6938EF" stroke-width="2" stroke-linecap="round" stroke-linejoin="round"/>
<path d="M24.5 2.66667H8.49998C7.02722 2.66667 5.83331 3.86058 5.83331 5.33333V26.6667C5.83331 28.1394 7.02722 29.3333 8.49998 29.3333H24.5C25.9727 29.3333 27.1666 28.1394 27.1666 26.6667V5.33333C27.1666 3.86058 25.9727 2.66667 24.5 2.66667Z" stroke="#6938EF" stroke-width="1.5" stroke-linecap="round" stroke-linejoin="round"/>
</svg>
