<svg width="33" height="32" viewBox="0 0 33 32" fill="none" xmlns="http://www.w3.org/2000/svg">
<path d="M3.16666 26.6667V16C3.16666 15.2928 3.44761 14.6145 3.9477 14.1144C4.4478 13.6143 5.12608 13.3333 5.83332 13.3333H27.1667C27.8739 13.3333 28.5522 13.6143 29.0523 14.1144C29.5524 14.6145 29.8333 15.2928 29.8333 16V26.6667" stroke="#6938EF" stroke-width="1.5" stroke-linecap="round" stroke-linejoin="round"/>
<path d="M5.83334 13.3333V8C5.83334 7.29275 6.11429 6.61448 6.61439 6.11438C7.11449 5.61428 7.79277 5.33333 8.50001 5.33333H24.5C25.2073 5.33333 25.8855 5.61428 26.3856 6.11438C26.8857 6.61448 27.1667 7.29275 27.1667 8V13.3333" stroke="#6938EF" stroke-width="1.5" stroke-linecap="round" stroke-linejoin="round"/>
<path d="M16.5 5.33333V13.3333" stroke="#6938EF" stroke-width="1.5" stroke-linecap="round" stroke-linejoin="round"/>
<path d="M3.16666 24H29.8333" stroke="#6938EF" stroke-width="1.5" stroke-linecap="round" stroke-linejoin="round"/>
</svg>
