<svg width="33" height="32" viewBox="0 0 33 32" fill="none" xmlns="http://www.w3.org/2000/svg">
<path d="M17.8333 5.33333H21.8333C22.5406 5.33333 23.2188 5.61428 23.7189 6.11438C24.219 6.61447 24.5 7.29275 24.5 7.99999V26.6667" stroke="#6938EF" stroke-width="1.5" stroke-linecap="round" stroke-linejoin="round"/>
<path d="M3.16669 26.6667H7.16669" stroke="#6938EF" stroke-width="1.5" stroke-linecap="round" stroke-linejoin="round"/>
<path d="M17.8333 26.6667H29.8333" stroke="#6938EF" stroke-width="1.5" stroke-linecap="round" stroke-linejoin="round"/>
<path d="M13.8333 16V16.0133" stroke="#6938EF" stroke-width="1.5" stroke-linecap="round" stroke-linejoin="round"/>
<path d="M17.8334 6.08266V27.6253C17.8333 27.8279 17.7871 28.0277 17.6983 28.2097C17.6095 28.3917 17.4803 28.5511 17.3207 28.6758C17.1611 28.8004 16.9752 28.8871 16.7771 28.9292C16.579 28.9713 16.3739 28.9677 16.1774 28.9187L7.16669 26.6667V7.41599C7.16678 6.82134 7.36563 6.24378 7.73163 5.7751C8.09763 5.30643 8.60978 4.97353 9.18669 4.82933L14.52 3.49599C14.913 3.39776 15.3232 3.39035 15.7195 3.47433C16.1158 3.55831 16.4878 3.73148 16.8071 3.98068C17.1265 4.22988 17.3849 4.54857 17.5627 4.91255C17.7405 5.27653 17.8331 5.67757 17.8334 6.08266Z" stroke="#6938EF" stroke-width="1.5" stroke-linecap="round" stroke-linejoin="round"/>
</svg>
