<svg width="40" height="40" viewBox="0 0 40 40" fill="none" xmlns="http://www.w3.org/2000/svg">
<path fill-rule="evenodd" clip-rule="evenodd" d="M20 35.2C10.2798 35.2 2.39998 27.3202 2.39998 17.6C2.39998 7.87979 10.2798 0 20 0C29.7202 0 37.6 7.87979 37.6 17.6C37.6 23.0731 35.1018 27.9627 31.1835 31.1907C31.1772 31.1958 31.1828 31.2058 31.1904 31.2032V31.2032C31.1951 31.2016 31.2 31.2051 31.2 31.21V36.6687C31.2 38.1965 29.5896 39.1882 28.2253 38.5004L22.0658 35.3955C21.7256 35.2239 21.3444 35.1535 20.9639 35.174C20.6448 35.1913 20.3234 35.2 20 35.2Z" fill="#E03137"/>
<path d="M17.2106 13.5583C16.9102 13.2579 16.4232 13.2579 16.1228 13.5583C15.8224 13.8587 15.8224 14.3458 16.1228 14.6462L18.9122 17.4356L16.1228 20.225C15.8224 20.5254 15.8224 21.0124 16.1228 21.3128C16.4232 21.6132 16.9102 21.6132 17.2106 21.3128L20 18.5234L22.7894 21.3128C23.0898 21.6132 23.5769 21.6132 23.8773 21.3128C24.1777 21.0124 24.1777 20.5254 23.8773 20.225L21.0879 17.4356L23.8773 14.6462C24.1777 14.3458 24.1777 13.8587 23.8773 13.5583C23.5769 13.2579 23.0898 13.2579 22.7894 13.5583L20 16.3477L17.2106 13.5583Z" fill="white"/>
</svg>
