<svg width="16" height="16" viewBox="0 0 16 16" fill="none" xmlns="http://www.w3.org/2000/svg">
<path d="M5.97508 1.475C5.97508 1.10221 5.67287 0.800003 5.30008 0.800003C4.92729 0.800003 4.62508 1.10221 4.62508 1.475V2.60758C3.52991 2.6322 2.44925 2.71659 1.38629 2.85764C1.01673 2.90668 0.756906 3.24602 0.805946 3.61557C0.854987 3.98513 1.19432 4.24495 1.56388 4.19591C2.78593 4.03374 4.03305 3.95 5.30008 3.95C5.81359 3.95 6.32382 3.96376 6.83043 3.99091C6.45434 5.26117 5.93825 6.47151 5.29997 7.60401C4.9648 7.00933 4.66333 6.3932 4.39814 5.75821C4.25447 5.41422 3.85915 5.25181 3.51515 5.39548C3.17115 5.53914 3.00875 5.93447 3.15241 6.27847C3.53301 7.18978 3.98286 8.06482 4.49534 8.89703C3.5329 10.3038 2.37085 11.5636 1.04978 12.6355C0.760293 12.8704 0.716033 13.2955 0.950921 13.585C1.18581 13.8745 1.6109 13.9187 1.90038 13.6839C3.1833 12.6429 4.32727 11.437 5.29997 10.0983C5.38587 10.2165 5.4731 10.3337 5.56164 10.4498C5.78768 10.7463 6.21124 10.8033 6.50769 10.5773C6.80413 10.3513 6.8612 9.92771 6.63516 9.63126C6.45218 9.39129 6.27525 9.14647 6.1046 8.89703C7.0142 7.41999 7.72642 5.8081 8.20434 4.09808C8.48289 4.12665 8.76023 4.15928 9.03628 4.19591C9.40584 4.24495 9.74517 3.98513 9.79421 3.61557C9.84325 3.24602 9.58343 2.90668 9.21387 2.85764C8.73029 2.79347 8.24303 2.74103 7.75241 2.7006C7.16461 2.65218 6.572 2.621 5.97508 2.60758V1.475Z" fill="white"/>
<path fill-rule="evenodd" clip-rule="evenodd" d="M10.7001 6.2C10.9558 6.2 11.1895 6.34445 11.3039 6.57313L15.1289 14.2231C15.2956 14.5566 15.1605 14.962 14.827 15.1287C14.4936 15.2955 14.0881 15.1603 13.9214 14.8269L13.208 13.4H8.19232L7.47889 14.8269C7.31217 15.1603 6.90672 15.2955 6.57328 15.1287C6.23985 14.962 6.10469 14.5566 6.27141 14.2231L10.0964 6.57313C10.2108 6.34445 10.4445 6.2 10.7001 6.2ZM12.533 12.05L10.7001 8.38435L8.86732 12.05H12.533Z" fill="white"/>
</svg>
