<svg width="338" height="301" viewBox="0 0 338 301" fill="none" xmlns="http://www.w3.org/2000/svg">
<rect x="1" y="61" width="177" height="83" rx="10" fill="#6938EF"/>
<path d="M20.577 88V79.103H17.14V77.92H25.26V79.103H21.823V88H20.577ZM28.4734 88.21C27.7221 88.21 27.0734 88.0397 26.5274 87.699C25.9861 87.3583 25.5684 86.887 25.2744 86.285C24.9804 85.683 24.8334 84.9923 24.8334 84.213C24.8334 83.4197 24.9828 82.7243 25.2814 82.127C25.5801 81.5297 26.0024 81.0653 26.5484 80.734C27.0944 80.398 27.7361 80.23 28.4734 80.23C29.2294 80.23 29.8804 80.4003 30.4264 80.741C30.9724 81.077 31.3901 81.546 31.6794 82.148C31.9734 82.7453 32.1204 83.4337 32.1204 84.213C32.1204 85.0017 31.9734 85.697 31.6794 86.299C31.3854 86.8963 30.9654 87.3653 30.4194 87.706C29.8734 88.042 29.2248 88.21 28.4734 88.21ZM28.4734 87.027C29.2574 87.027 29.8408 86.7657 30.2234 86.243C30.6061 85.7203 30.7974 85.0437 30.7974 84.213C30.7974 83.359 30.6038 82.68 30.2164 82.176C29.8291 81.6673 29.2481 81.413 28.4734 81.413C27.9461 81.413 27.5121 81.532 27.1714 81.77C26.8308 82.008 26.5764 82.337 26.4084 82.757C26.2404 83.177 26.1564 83.6623 26.1564 84.213C26.1564 85.0623 26.3524 85.7437 26.7444 86.257C27.1364 86.7703 27.7128 87.027 28.4734 87.027ZM37.8826 88C37.4346 88.0887 36.9913 88.1237 36.5526 88.105C36.1186 88.091 35.7313 88.0047 35.3906 87.846C35.05 87.6827 34.791 87.4307 34.6136 87.09C34.4643 86.7913 34.3826 86.4903 34.3686 86.187C34.3593 85.879 34.3546 85.5313 34.3546 85.144V78.34H35.6006V85.088C35.6006 85.396 35.603 85.6597 35.6076 85.879C35.617 86.0983 35.666 86.2873 35.7546 86.446C35.9226 86.7447 36.1886 86.9197 36.5526 86.971C36.9213 87.0223 37.3646 87.0083 37.8826 86.929V88ZM32.8216 81.469V80.44H37.8826V81.469H32.8216ZM41.5665 88.21C41.0018 88.21 40.5282 88.1073 40.1455 87.902C39.7675 87.692 39.4805 87.4167 39.2845 87.076C39.0932 86.7353 38.9975 86.362 38.9975 85.956C38.9975 85.5593 39.0722 85.2163 39.2215 84.927C39.3755 84.633 39.5902 84.3903 39.8655 84.199C40.1408 84.003 40.4698 83.849 40.8525 83.737C41.2118 83.639 41.6132 83.555 42.0565 83.485C42.5045 83.4103 42.9572 83.3427 43.4145 83.282C43.8718 83.2213 44.2988 83.163 44.6955 83.107L44.2475 83.366C44.2615 82.694 44.1262 82.197 43.8415 81.875C43.5615 81.553 43.0762 81.392 42.3855 81.392C41.9282 81.392 41.5268 81.497 41.1815 81.707C40.8408 81.9123 40.6005 82.2483 40.4605 82.715L39.2775 82.358C39.4595 81.6953 39.8118 81.175 40.3345 80.797C40.8572 80.419 41.5455 80.23 42.3995 80.23C43.0855 80.23 43.6735 80.3537 44.1635 80.601C44.6582 80.8437 45.0128 81.2123 45.2275 81.707C45.3348 81.9403 45.4025 82.1947 45.4305 82.47C45.4585 82.7407 45.4725 83.0253 45.4725 83.324V88H44.3665V86.187L44.6255 86.355C44.3408 86.9663 43.9418 87.4283 43.4285 87.741C42.9198 88.0537 42.2992 88.21 41.5665 88.21ZM41.7555 87.167C42.2035 87.167 42.5908 87.0877 42.9175 86.929C43.2488 86.7657 43.5148 86.5533 43.7155 86.292C43.9162 86.026 44.0468 85.7367 44.1075 85.424C44.1775 85.1907 44.2148 84.9317 44.2195 84.647C44.2288 84.3577 44.2335 84.136 44.2335 83.982L44.6675 84.171C44.2615 84.227 43.8625 84.2807 43.4705 84.332C43.0785 84.3833 42.7075 84.4393 42.3575 84.5C42.0075 84.556 41.6925 84.6237 41.4125 84.703C41.2072 84.7683 41.0135 84.8523 40.8315 84.955C40.6542 85.0577 40.5095 85.1907 40.3975 85.354C40.2902 85.5127 40.2365 85.711 40.2365 85.949C40.2365 86.1543 40.2878 86.3503 40.3905 86.537C40.4978 86.7237 40.6612 86.8753 40.8805 86.992C41.1045 87.1087 41.3962 87.167 41.7555 87.167ZM47.4325 88V77.71H48.6785V88H47.4325ZM53.5816 88V77.92H57.5646C57.6626 77.92 57.7792 77.9247 57.9146 77.934C58.0499 77.9387 58.1806 77.9527 58.3066 77.976C58.8526 78.06 59.3099 78.2467 59.6786 78.536C60.0519 78.8253 60.3319 79.1917 60.5186 79.635C60.7052 80.0737 60.7986 80.5613 60.7986 81.098C60.7986 81.63 60.7029 82.1177 60.5116 82.561C60.3249 82.9997 60.0449 83.366 59.6716 83.66C59.3029 83.9493 58.8479 84.136 58.3066 84.22C58.1806 84.2387 58.0499 84.2527 57.9146 84.262C57.7792 84.2713 57.6626 84.276 57.5646 84.276H54.8276V88H53.5816ZM54.8276 83.093H57.5226C57.6112 83.093 57.7116 83.0883 57.8236 83.079C57.9402 83.0697 58.0499 83.0533 58.1526 83.03C58.4746 82.9553 58.7359 82.82 58.9366 82.624C59.1419 82.4233 59.2912 82.19 59.3846 81.924C59.4779 81.6533 59.5246 81.378 59.5246 81.098C59.5246 80.818 59.4779 80.545 59.3846 80.279C59.2912 80.0083 59.1419 79.7727 58.9366 79.572C58.7359 79.3713 58.4746 79.236 58.1526 79.166C58.0499 79.138 57.9402 79.1217 57.8236 79.117C57.7116 79.1077 57.6112 79.103 57.5226 79.103H54.8276V83.093ZM62.1948 88V80.44H63.3078V82.267L63.1258 82.029C63.2145 81.7957 63.3288 81.581 63.4688 81.385C63.6135 81.189 63.7745 81.028 63.9518 80.902C64.1478 80.7433 64.3695 80.622 64.6168 80.538C64.8642 80.454 65.1162 80.405 65.3728 80.391C65.6295 80.3723 65.8698 80.3887 66.0938 80.44V81.609C65.8325 81.539 65.5455 81.5203 65.2328 81.553C64.9202 81.5857 64.6308 81.7 64.3648 81.896C64.1222 82.0687 63.9332 82.2787 63.7978 82.526C63.6672 82.7733 63.5762 83.0417 63.5248 83.331C63.4735 83.6157 63.4478 83.9073 63.4478 84.206V88H62.1948ZM70.5008 88.21C69.7494 88.21 69.1008 88.0397 68.5548 87.699C68.0134 87.3583 67.5958 86.887 67.3018 86.285C67.0078 85.683 66.8608 84.9923 66.8608 84.213C66.8608 83.4197 67.0101 82.7243 67.3088 82.127C67.6074 81.5297 68.0298 81.0653 68.5758 80.734C69.1218 80.398 69.7634 80.23 70.5008 80.23C71.2568 80.23 71.9078 80.4003 72.4538 80.741C72.9998 81.077 73.4174 81.546 73.7068 82.148C74.0008 82.7453 74.1478 83.4337 74.1478 84.213C74.1478 85.0017 74.0008 85.697 73.7068 86.299C73.4128 86.8963 72.9928 87.3653 72.4468 87.706C71.9008 88.042 71.2521 88.21 70.5008 88.21ZM70.5008 87.027C71.2848 87.027 71.8681 86.7657 72.2508 86.243C72.6334 85.7203 72.8248 85.0437 72.8248 84.213C72.8248 83.359 72.6311 82.68 72.2438 82.176C71.8564 81.6673 71.2754 81.413 70.5008 81.413C69.9734 81.413 69.5394 81.532 69.1988 81.77C68.8581 82.008 68.6038 82.337 68.4358 82.757C68.2678 83.177 68.1838 83.6623 68.1838 84.213C68.1838 85.0623 68.3798 85.7437 68.7718 86.257C69.1638 86.7703 69.7401 87.027 70.5008 87.027ZM79.161 88.21C78.4517 88.21 77.8543 88.035 77.369 87.685C76.8837 87.3303 76.515 86.852 76.263 86.25C76.0157 85.6433 75.892 84.9643 75.892 84.213C75.892 83.4523 76.0157 82.771 76.263 82.169C76.515 81.567 76.8837 81.0933 77.369 80.748C77.859 80.4027 78.4587 80.23 79.168 80.23C79.868 80.23 80.47 80.405 80.974 80.755C81.4827 81.1003 81.8723 81.574 82.143 82.176C82.4137 82.778 82.549 83.457 82.549 84.213C82.549 84.969 82.4137 85.648 82.143 86.25C81.8723 86.852 81.4827 87.3303 80.974 87.685C80.47 88.035 79.8657 88.21 79.161 88.21ZM75.682 91.36V80.44H76.795V86.005H76.935V91.36H75.682ZM79.007 87.069C79.5063 87.069 79.9193 86.943 80.246 86.691C80.5727 86.439 80.8177 86.0983 80.981 85.669C81.1443 85.235 81.226 84.7497 81.226 84.213C81.226 83.681 81.1443 83.2003 80.981 82.771C80.8223 82.3417 80.575 82.001 80.239 81.749C79.9077 81.497 79.4853 81.371 78.972 81.371C78.482 81.371 78.076 81.4923 77.754 81.735C77.432 81.973 77.1917 82.3067 77.033 82.736C76.8743 83.1607 76.795 83.653 76.795 84.213C76.795 84.7637 76.872 85.256 77.026 85.69C77.1847 86.1193 77.4273 86.4577 77.754 86.705C78.0807 86.9477 78.4983 87.069 79.007 87.069ZM87.3595 88.21C86.6175 88.21 85.9688 88.0467 85.4135 87.72C84.8628 87.3887 84.4335 86.929 84.1255 86.341C83.8175 85.7483 83.6635 85.0577 83.6635 84.269C83.6635 83.443 83.8152 82.729 84.1185 82.127C84.4218 81.5203 84.8442 81.0537 85.3855 80.727C85.9315 80.3957 86.5708 80.23 87.3035 80.23C88.0642 80.23 88.7105 80.405 89.2425 80.755C89.7792 81.105 90.1805 81.6043 90.4465 82.253C90.7172 82.9017 90.8338 83.674 90.7965 84.57H89.5365V84.122C89.5225 83.1933 89.3335 82.5003 88.9695 82.043C88.6055 81.581 88.0642 81.35 87.3455 81.35C86.5755 81.35 85.9898 81.5973 85.5885 82.092C85.1872 82.5867 84.9865 83.296 84.9865 84.22C84.9865 85.1113 85.1872 85.802 85.5885 86.292C85.9898 86.782 86.5615 87.027 87.3035 87.027C87.8028 87.027 88.2368 86.9127 88.6055 86.684C88.9742 86.4553 89.2635 86.1263 89.4735 85.697L90.6705 86.11C90.3765 86.7773 89.9332 87.2953 89.3405 87.664C88.7525 88.028 88.0922 88.21 87.3595 88.21ZM84.5665 84.57V83.569H90.1525V84.57H84.5665ZM92.355 88V80.44H93.468V82.267L93.286 82.029C93.3747 81.7957 93.489 81.581 93.629 81.385C93.7737 81.189 93.9347 81.028 94.112 80.902C94.308 80.7433 94.5297 80.622 94.777 80.538C95.0243 80.454 95.2763 80.405 95.533 80.391C95.7897 80.3723 96.03 80.3887 96.254 80.44V81.609C95.9927 81.539 95.7057 81.5203 95.393 81.553C95.0803 81.5857 94.791 81.7 94.525 81.896C94.2823 82.0687 94.0933 82.2787 93.958 82.526C93.8273 82.7733 93.7363 83.0417 93.685 83.331C93.6337 83.6157 93.608 83.9073 93.608 84.206V88H92.355ZM101.799 88C101.351 88.0887 100.907 88.1237 100.469 88.105C100.035 88.091 99.6473 88.0047 99.3067 87.846C98.966 87.6827 98.707 87.4307 98.5297 87.09C98.3803 86.7913 98.2987 86.4903 98.2847 86.187C98.2753 85.879 98.2707 85.5313 98.2707 85.144V78.34H99.5167V85.088C99.5167 85.396 99.519 85.6597 99.5237 85.879C99.533 86.0983 99.582 86.2873 99.6707 86.446C99.8387 86.7447 100.105 86.9197 100.469 86.971C100.837 87.0223 101.281 87.0083 101.799 86.929V88ZM96.7377 81.469V80.44H101.799V81.469H96.7377ZM103.474 79.103V77.815H104.72V79.103H103.474ZM103.474 88V80.44H104.72V88H103.474ZM110.096 88.21C109.354 88.21 108.705 88.0467 108.15 87.72C107.599 87.3887 107.17 86.929 106.862 86.341C106.554 85.7483 106.4 85.0577 106.4 84.269C106.4 83.443 106.552 82.729 106.855 82.127C107.158 81.5203 107.581 81.0537 108.122 80.727C108.668 80.3957 109.307 80.23 110.04 80.23C110.801 80.23 111.447 80.405 111.979 80.755C112.516 81.105 112.917 81.6043 113.183 82.253C113.454 82.9017 113.57 83.674 113.533 84.57H112.273V84.122C112.259 83.1933 112.07 82.5003 111.706 82.043C111.342 81.581 110.801 81.35 110.082 81.35C109.312 81.35 108.726 81.5973 108.325 82.092C107.924 82.5867 107.723 83.296 107.723 84.22C107.723 85.1113 107.924 85.802 108.325 86.292C108.726 86.782 109.298 87.027 110.04 87.027C110.539 87.027 110.973 86.9127 111.342 86.684C111.711 86.4553 112 86.1263 112.21 85.697L113.407 86.11C113.113 86.7773 112.67 87.2953 112.077 87.664C111.489 88.028 110.829 88.21 110.096 88.21ZM107.303 84.57V83.569H112.889V84.57H107.303ZM117.947 88.203C117.047 88.203 116.307 88.007 115.728 87.615C115.154 87.2183 114.802 86.6653 114.671 85.956L115.945 85.753C116.048 86.1637 116.284 86.4903 116.652 86.733C117.021 86.971 117.478 87.09 118.024 87.09C118.542 87.09 118.948 86.9827 119.242 86.768C119.536 86.5533 119.683 86.2617 119.683 85.893C119.683 85.6783 119.634 85.5057 119.536 85.375C119.438 85.2397 119.235 85.1137 118.927 84.997C118.624 84.8803 118.164 84.7403 117.548 84.577C116.881 84.3997 116.356 84.2153 115.973 84.024C115.591 83.8327 115.318 83.611 115.154 83.359C114.991 83.107 114.909 82.8013 114.909 82.442C114.909 81.9987 115.031 81.6113 115.273 81.28C115.516 80.944 115.854 80.685 116.288 80.503C116.727 80.321 117.236 80.23 117.814 80.23C118.388 80.23 118.902 80.321 119.354 80.503C119.807 80.685 120.171 80.944 120.446 81.28C120.726 81.6113 120.892 81.9987 120.943 82.442L119.669 82.673C119.609 82.267 119.413 81.9473 119.081 81.714C118.755 81.4807 118.332 81.357 117.814 81.343C117.324 81.3243 116.925 81.4107 116.617 81.602C116.314 81.7933 116.162 82.0523 116.162 82.379C116.162 82.561 116.218 82.7173 116.33 82.848C116.447 82.9787 116.659 83.1023 116.967 83.219C117.28 83.3357 117.733 83.4687 118.325 83.618C118.993 83.786 119.518 83.9703 119.9 84.171C120.288 84.367 120.563 84.6003 120.726 84.871C120.89 85.137 120.971 85.466 120.971 85.858C120.971 86.586 120.703 87.16 120.166 87.58C119.63 87.9953 118.89 88.203 117.947 88.203Z" fill="#F8F8F8"/>
<path d="M21.68 127V112.876L18.44 114.856V111.664L21.68 109.72H24.632V127H21.68ZM35.4194 127.36C34.1954 127.36 33.1154 127.1 32.1794 126.58C31.2434 126.052 30.5114 125.32 29.9834 124.384C29.4634 123.448 29.2034 122.368 29.2034 121.144V115.576C29.2034 114.352 29.4634 113.272 29.9834 112.336C30.5114 111.4 31.2434 110.672 32.1794 110.152C33.1154 109.624 34.1954 109.36 35.4194 109.36C36.6434 109.36 37.7194 109.624 38.6474 110.152C39.5834 110.672 40.3154 111.4 40.8434 112.336C41.3714 113.272 41.6354 114.352 41.6354 115.576V121.144C41.6354 122.368 41.3714 123.448 40.8434 124.384C40.3154 125.32 39.5834 126.052 38.6474 126.58C37.7194 127.1 36.6434 127.36 35.4194 127.36ZM35.4194 124.612C36.0274 124.612 36.5794 124.468 37.0754 124.18C37.5714 123.884 37.9634 123.492 38.2514 123.004C38.5394 122.508 38.6834 121.956 38.6834 121.348V115.36C38.6834 114.744 38.5394 114.192 38.2514 113.704C37.9634 113.208 37.5714 112.816 37.0754 112.528C36.5794 112.232 36.0274 112.084 35.4194 112.084C34.8114 112.084 34.2594 112.232 33.7634 112.528C33.2674 112.816 32.8754 113.208 32.5874 113.704C32.2994 114.192 32.1554 114.744 32.1554 115.36V121.348C32.1554 121.956 32.2994 122.508 32.5874 123.004C32.8754 123.492 33.2674 123.884 33.7634 124.18C34.2594 124.468 34.8114 124.612 35.4194 124.612Z" fill="white"/>
<path opacity="0.08" d="M58.4938 234.5L0 277V301H320.953L320.953 198.684L268.563 120L218.207 199L167.343 231L112.918 178L58.4938 234.5Z" fill="url(#paint0_linear_2718_7244)"/>
<path d="M15.6791 266L58.4938 234.5L112.918 178L167.343 231L218.207 199L268.563 120L320.953 198.684" stroke="#6938EF" stroke-width="2"/>
<ellipse cx="58.0463" cy="234" rx="2.02263" ry="2" fill="white" stroke="#6938EF" stroke-width="2"/>
<ellipse cx="15.6664" cy="266" rx="2.02263" ry="2" fill="white" stroke="#6938EF" stroke-width="2"/>
<ellipse cx="112.657" cy="179" rx="2.02263" ry="2" fill="white" stroke="#6938EF" stroke-width="2"/>
<ellipse cx="167.269" cy="230" rx="2.02263" ry="2" fill="white" stroke="#6938EF" stroke-width="2"/>
<ellipse cx="217.834" cy="199" rx="2.02263" ry="2" fill="white" stroke="#6938EF" stroke-width="2"/>
<ellipse cx="268.4" cy="120" rx="2.02263" ry="2" fill="white" stroke="#6938EF" stroke-width="2"/>
<ellipse cx="320.023" cy="198" rx="2.02263" ry="2" fill="white" stroke="#6938EF" stroke-width="2"/>
<g filter="url(#filter0_d_2718_7244)">
<rect x="131" width="177" height="83" rx="10" fill="white" shape-rendering="crispEdges"/>
<path d="M147.98 27V16.92H151.963C152.061 16.92 152.178 16.9247 152.313 16.934C152.448 16.9387 152.579 16.9527 152.705 16.976C153.251 17.06 153.708 17.2467 154.077 17.536C154.45 17.8253 154.73 18.1917 154.917 18.635C155.104 19.0737 155.197 19.5613 155.197 20.098C155.197 20.8773 154.994 21.554 154.588 22.128C154.182 22.6973 153.587 23.0543 152.803 23.199L152.327 23.276H149.226V27H147.98ZM153.979 27L151.991 22.898L153.223 22.52L155.407 27H153.979ZM149.226 22.093H151.921C152.01 22.093 152.11 22.0883 152.222 22.079C152.339 22.0697 152.448 22.0533 152.551 22.03C152.873 21.9553 153.134 21.82 153.335 21.624C153.54 21.4233 153.69 21.19 153.783 20.924C153.876 20.6533 153.923 20.378 153.923 20.098C153.923 19.818 153.876 19.545 153.783 19.279C153.69 19.0083 153.54 18.7727 153.335 18.572C153.134 18.3713 152.873 18.236 152.551 18.166C152.448 18.138 152.339 18.1217 152.222 18.117C152.11 18.1077 152.01 18.103 151.921 18.103H149.226V22.093ZM160.225 27.21C159.483 27.21 158.834 27.0467 158.279 26.72C157.728 26.3887 157.299 25.929 156.991 25.341C156.683 24.7483 156.529 24.0577 156.529 23.269C156.529 22.443 156.68 21.729 156.984 21.127C157.287 20.5203 157.709 20.0537 158.251 19.727C158.797 19.3957 159.436 19.23 160.169 19.23C160.929 19.23 161.576 19.405 162.108 19.755C162.644 20.105 163.046 20.6043 163.312 21.253C163.582 21.9017 163.699 22.674 163.662 23.57H162.402V23.122C162.388 22.1933 162.199 21.5003 161.835 21.043C161.471 20.581 160.929 20.35 160.211 20.35C159.441 20.35 158.855 20.5973 158.454 21.092C158.052 21.5867 157.852 22.296 157.852 23.22C157.852 24.1113 158.052 24.802 158.454 25.292C158.855 25.782 159.427 26.027 160.169 26.027C160.668 26.027 161.102 25.9127 161.471 25.684C161.839 25.4553 162.129 25.1263 162.339 24.697L163.536 25.11C163.242 25.7773 162.798 26.2953 162.206 26.664C161.618 27.028 160.957 27.21 160.225 27.21ZM157.432 23.57V22.569H163.018V23.57H157.432ZM166.991 27L164.247 19.44H165.507L167.628 25.411L169.742 19.44H171.009L168.265 27H166.991ZM175.277 27.21C174.535 27.21 173.887 27.0467 173.331 26.72C172.781 26.3887 172.351 25.929 172.043 25.341C171.735 24.7483 171.581 24.0577 171.581 23.269C171.581 22.443 171.733 21.729 172.036 21.127C172.34 20.5203 172.762 20.0537 173.303 19.727C173.849 19.3957 174.489 19.23 175.221 19.23C175.982 19.23 176.628 19.405 177.16 19.755C177.697 20.105 178.098 20.6043 178.364 21.253C178.635 21.9017 178.752 22.674 178.714 23.57H177.454V23.122C177.44 22.1933 177.251 21.5003 176.887 21.043C176.523 20.581 175.982 20.35 175.263 20.35C174.493 20.35 173.908 20.5973 173.506 21.092C173.105 21.5867 172.904 22.296 172.904 23.22C172.904 24.1113 173.105 24.802 173.506 25.292C173.908 25.782 174.479 26.027 175.221 26.027C175.721 26.027 176.155 25.9127 176.523 25.684C176.892 25.4553 177.181 25.1263 177.391 24.697L178.588 25.11C178.294 25.7773 177.851 26.2953 177.258 26.664C176.67 27.028 176.01 27.21 175.277 27.21ZM172.484 23.57V22.569H178.07V23.57H172.484ZM185.451 27V23.213C185.451 22.8537 185.418 22.5083 185.353 22.177C185.292 21.8457 185.183 21.5493 185.024 21.288C184.87 21.022 184.66 20.812 184.394 20.658C184.133 20.504 183.801 20.427 183.4 20.427C183.087 20.427 182.803 20.4807 182.546 20.588C182.294 20.6907 182.077 20.8493 181.895 21.064C181.713 21.2787 181.571 21.5493 181.468 21.876C181.37 22.198 181.321 22.5783 181.321 23.017L180.502 22.765C180.502 22.0323 180.633 21.4047 180.894 20.882C181.16 20.3547 181.531 19.951 182.007 19.671C182.488 19.3863 183.052 19.244 183.701 19.244C184.191 19.244 184.609 19.321 184.954 19.475C185.299 19.629 185.586 19.8343 185.815 20.091C186.044 20.343 186.223 20.6277 186.354 20.945C186.485 21.2577 186.576 21.5773 186.627 21.904C186.683 22.226 186.711 22.5317 186.711 22.821V27H185.451ZM180.061 27V19.44H181.181V21.463H181.321V27H180.061ZM191.401 27.196C190.915 27.196 190.498 27.119 190.148 26.965C189.802 26.811 189.515 26.6057 189.287 26.349C189.058 26.0923 188.878 25.8077 188.748 25.495C188.617 25.1823 188.524 24.8627 188.468 24.536C188.416 24.2093 188.391 23.9037 188.391 23.619V19.44H189.651V23.227C189.651 23.5817 189.683 23.9247 189.749 24.256C189.814 24.5873 189.924 24.886 190.078 25.152C190.236 25.418 190.446 25.628 190.708 25.782C190.974 25.936 191.305 26.013 191.702 26.013C192.014 26.013 192.299 25.9593 192.556 25.852C192.812 25.7447 193.032 25.586 193.214 25.376C193.396 25.1613 193.536 24.8907 193.634 24.564C193.732 24.2373 193.781 23.857 193.781 23.423L194.6 23.675C194.6 24.403 194.467 25.0307 194.201 25.558C193.939 26.0853 193.568 26.4913 193.088 26.776C192.612 27.056 192.049 27.196 191.401 27.196ZM193.921 27V24.977H193.781V19.44H195.034V27H193.921ZM200.27 27.21C199.528 27.21 198.879 27.0467 198.324 26.72C197.773 26.3887 197.344 25.929 197.036 25.341C196.728 24.7483 196.574 24.0577 196.574 23.269C196.574 22.443 196.725 21.729 197.029 21.127C197.332 20.5203 197.754 20.0537 198.296 19.727C198.842 19.3957 199.481 19.23 200.214 19.23C200.974 19.23 201.621 19.405 202.153 19.755C202.689 20.105 203.091 20.6043 203.357 21.253C203.627 21.9017 203.744 22.674 203.707 23.57H202.447V23.122C202.433 22.1933 202.244 21.5003 201.88 21.043C201.516 20.581 200.974 20.35 200.256 20.35C199.486 20.35 198.9 20.5973 198.499 21.092C198.097 21.5867 197.897 22.296 197.897 23.22C197.897 24.1113 198.097 24.802 198.499 25.292C198.9 25.782 199.472 26.027 200.214 26.027C200.713 26.027 201.147 25.9127 201.516 25.684C201.884 25.4553 202.174 25.1263 202.384 24.697L203.581 25.11C203.287 25.7773 202.843 26.2953 202.251 26.664C201.663 27.028 201.002 27.21 200.27 27.21ZM197.477 23.57V22.569H203.063V23.57H197.477Z" fill="#687588"/>
<path d="M235.449 66V57.36H240.849V58.206H236.331V61.194H240.129V62.04H236.331V65.154H240.849V66H235.449ZM244.591 66V58.206H241.573V57.36H248.491V58.206H245.473V66H244.591ZM249.453 66V57.36H252.789C253.273 57.36 253.695 57.46 254.055 57.66C254.415 57.86 254.695 58.13 254.895 58.47C255.095 58.806 255.195 59.178 255.195 59.586C255.195 60.05 255.071 60.464 254.823 60.828C254.575 61.188 254.243 61.438 253.827 61.578L253.815 61.284C254.375 61.444 254.815 61.724 255.135 62.124C255.455 62.524 255.615 63.008 255.615 63.576C255.615 64.076 255.509 64.508 255.297 64.872C255.085 65.232 254.787 65.51 254.403 65.706C254.019 65.902 253.573 66 253.065 66H249.453ZM250.341 65.154H252.849C253.201 65.154 253.517 65.092 253.797 64.968C254.077 64.84 254.297 64.66 254.457 64.428C254.621 64.196 254.703 63.916 254.703 63.588C254.703 63.268 254.629 62.98 254.481 62.724C254.333 62.468 254.131 62.264 253.875 62.112C253.623 61.956 253.335 61.878 253.011 61.878H250.341V65.154ZM250.341 61.044H252.783C253.059 61.044 253.311 60.982 253.539 60.858C253.767 60.73 253.947 60.556 254.079 60.336C254.215 60.116 254.283 59.862 254.283 59.574C254.283 59.166 254.141 58.834 253.857 58.578C253.577 58.322 253.219 58.194 252.783 58.194H250.341V61.044ZM258.997 57.36H259.903L257.599 66H256.693L258.997 57.36ZM261.465 66V57.36H262.275L265.671 64.626L269.049 57.36H269.871V65.994H269.031V59.328L265.953 66H265.383L262.311 59.328V66H261.465ZM274.261 66.18C273.617 66.18 273.067 66.034 272.611 65.742C272.155 65.45 271.805 65.046 271.561 64.53C271.317 64.014 271.195 63.422 271.195 62.754C271.195 62.074 271.319 61.478 271.567 60.966C271.815 60.454 272.167 60.056 272.623 59.772C273.083 59.484 273.629 59.34 274.261 59.34C274.909 59.34 275.461 59.486 275.917 59.778C276.377 60.066 276.727 60.468 276.967 60.984C277.211 61.496 277.333 62.086 277.333 62.754C277.333 63.434 277.211 64.032 276.967 64.548C276.723 65.06 276.371 65.46 275.911 65.748C275.451 66.036 274.901 66.18 274.261 66.18ZM274.261 65.334C274.981 65.334 275.517 65.096 275.869 64.62C276.221 64.14 276.397 63.518 276.397 62.754C276.397 61.97 276.219 61.346 275.863 60.882C275.511 60.418 274.977 60.186 274.261 60.186C273.777 60.186 273.377 60.296 273.061 60.516C272.749 60.732 272.515 61.034 272.359 61.422C272.207 61.806 272.131 62.25 272.131 62.754C272.131 63.534 272.311 64.16 272.671 64.632C273.031 65.1 273.561 65.334 274.261 65.334ZM283.336 66V62.694C283.336 62.334 283.302 62.004 283.234 61.704C283.166 61.4 283.056 61.136 282.904 60.912C282.756 60.684 282.562 60.508 282.322 60.384C282.086 60.26 281.798 60.198 281.458 60.198C281.146 60.198 280.87 60.252 280.63 60.36C280.394 60.468 280.194 60.624 280.03 60.828C279.87 61.028 279.748 61.272 279.664 61.56C279.58 61.848 279.538 62.176 279.538 62.544L278.914 62.406C278.914 61.742 279.03 61.184 279.262 60.732C279.494 60.28 279.814 59.938 280.222 59.706C280.63 59.474 281.098 59.358 281.626 59.358C282.014 59.358 282.352 59.418 282.64 59.538C282.932 59.658 283.178 59.82 283.378 60.024C283.582 60.228 283.746 60.462 283.87 60.726C283.994 60.986 284.084 61.264 284.14 61.56C284.196 61.852 284.224 62.144 284.224 62.436V66H283.336ZM278.65 66V59.52H279.448V61.116H279.538V66H278.65ZM289.309 66C288.945 66.076 288.585 66.106 288.229 66.09C287.877 66.074 287.561 65.998 287.281 65.862C287.005 65.726 286.795 65.514 286.651 65.226C286.535 64.986 286.471 64.744 286.459 64.5C286.451 64.252 286.447 63.97 286.447 63.654V57.72H287.323V63.618C287.323 63.89 287.325 64.118 287.329 64.302C287.337 64.482 287.379 64.642 287.455 64.782C287.599 65.05 287.827 65.21 288.139 65.262C288.455 65.314 288.845 65.302 289.309 65.226V66ZM285.061 60.276V59.52H289.309V60.276H285.061ZM295.266 66V62.694C295.266 62.334 295.232 62.004 295.164 61.704C295.096 61.4 294.986 61.136 294.834 60.912C294.686 60.684 294.492 60.508 294.252 60.384C294.016 60.26 293.728 60.198 293.388 60.198C293.076 60.198 292.8 60.252 292.56 60.36C292.324 60.468 292.124 60.624 291.96 60.828C291.8 61.028 291.678 61.272 291.594 61.56C291.51 61.848 291.468 62.176 291.468 62.544L290.844 62.406C290.844 61.742 290.96 61.184 291.192 60.732C291.424 60.28 291.744 59.938 292.152 59.706C292.56 59.474 293.028 59.358 293.556 59.358C293.944 59.358 294.282 59.418 294.57 59.538C294.862 59.658 295.108 59.82 295.308 60.024C295.512 60.228 295.676 60.462 295.8 60.726C295.924 60.986 296.014 61.264 296.07 61.56C296.126 61.852 296.154 62.144 296.154 62.436V66H295.266ZM290.58 66V57.36H291.378V62.238H291.468V66H290.58Z" fill="#111827"/>
</g>
<g filter="url(#filter1_d_2718_7244)">
<rect x="69" y="122" width="177" height="83" rx="10" fill="white" shape-rendering="crispEdges"/>
<rect x="69.5" y="122.5" width="176" height="82" rx="9.5" stroke="#9B8AFB" shape-rendering="crispEdges"/>
<path d="M90.124 149.21C89.1207 149.21 88.269 148.988 87.569 148.545C86.869 148.102 86.3347 147.486 85.966 146.697C85.602 145.908 85.42 144.996 85.42 143.96C85.42 142.924 85.602 142.012 85.966 141.223C86.3347 140.434 86.869 139.818 87.569 139.375C88.269 138.932 89.1207 138.71 90.124 138.71C91.132 138.71 91.986 138.932 92.686 139.375C93.386 139.818 93.918 140.434 94.282 141.223C94.646 142.012 94.828 142.924 94.828 143.96C94.828 144.996 94.646 145.908 94.282 146.697C93.918 147.486 93.386 148.102 92.686 148.545C91.986 148.988 91.132 149.21 90.124 149.21ZM90.124 148.02C90.8753 148.025 91.5007 147.857 92 147.516C92.504 147.171 92.8797 146.692 93.127 146.081C93.379 145.47 93.505 144.763 93.505 143.96C93.505 143.153 93.379 142.446 93.127 141.839C92.8797 141.232 92.504 140.759 92 140.418C91.5007 140.077 90.8753 139.905 90.124 139.9C89.3727 139.895 88.7473 140.063 88.248 140.404C87.7533 140.745 87.38 141.221 87.128 141.832C86.876 142.443 86.7477 143.153 86.743 143.96C86.7383 144.763 86.862 145.467 87.114 146.074C87.366 146.681 87.7417 147.157 88.241 147.502C88.745 147.843 89.3727 148.015 90.124 148.02ZM99.4189 149.21C98.6536 149.21 98.0026 149.04 97.4659 148.699C96.9339 148.354 96.5279 147.88 96.2479 147.278C95.9679 146.676 95.8232 145.99 95.8139 145.22C95.8232 144.431 95.9702 143.738 96.2549 143.141C96.5442 142.539 96.9572 142.07 97.4939 141.734C98.0306 141.398 98.6769 141.23 99.4329 141.23C100.231 141.23 100.917 141.426 101.491 141.818C102.07 142.21 102.457 142.747 102.653 143.428L101.421 143.799C101.262 143.36 101.003 143.02 100.644 142.777C100.289 142.534 99.8809 142.413 99.4189 142.413C98.9009 142.413 98.4739 142.534 98.1379 142.777C97.8019 143.015 97.5522 143.346 97.3889 143.771C97.2256 144.191 97.1416 144.674 97.1369 145.22C97.1462 146.06 97.3399 146.739 97.7179 147.257C98.1006 147.77 98.6676 148.027 99.4189 148.027C99.9136 148.027 100.324 147.915 100.651 147.691C100.978 147.462 101.225 147.133 101.393 146.704L102.653 147.033C102.392 147.738 101.983 148.277 101.428 148.65C100.873 149.023 100.203 149.21 99.4189 149.21ZM107.061 149.21C106.296 149.21 105.645 149.04 105.108 148.699C104.576 148.354 104.17 147.88 103.89 147.278C103.61 146.676 103.466 145.99 103.456 145.22C103.466 144.431 103.613 143.738 103.897 143.141C104.187 142.539 104.6 142.07 105.136 141.734C105.673 141.398 106.319 141.23 107.075 141.23C107.873 141.23 108.559 141.426 109.133 141.818C109.712 142.21 110.099 142.747 110.295 143.428L109.063 143.799C108.905 143.36 108.646 143.02 108.286 142.777C107.932 142.534 107.523 142.413 107.061 142.413C106.543 142.413 106.116 142.534 105.78 142.777C105.444 143.015 105.195 143.346 105.031 143.771C104.868 144.191 104.784 144.674 104.779 145.22C104.789 146.06 104.982 146.739 105.36 147.257C105.743 147.77 106.31 148.027 107.061 148.027C107.556 148.027 107.967 147.915 108.293 147.691C108.62 147.462 108.867 147.133 109.035 146.704L110.295 147.033C110.034 147.738 109.626 148.277 109.07 148.65C108.515 149.023 107.845 149.21 107.061 149.21ZM114.594 149.196C114.109 149.196 113.691 149.119 113.341 148.965C112.996 148.811 112.709 148.606 112.48 148.349C112.251 148.092 112.072 147.808 111.941 147.495C111.81 147.182 111.717 146.863 111.661 146.536C111.61 146.209 111.584 145.904 111.584 145.619V141.44H112.844V145.227C112.844 145.582 112.877 145.925 112.942 146.256C113.007 146.587 113.117 146.886 113.271 147.152C113.43 147.418 113.64 147.628 113.901 147.782C114.167 147.936 114.498 148.013 114.895 148.013C115.208 148.013 115.492 147.959 115.749 147.852C116.006 147.745 116.225 147.586 116.407 147.376C116.589 147.161 116.729 146.891 116.827 146.564C116.925 146.237 116.974 145.857 116.974 145.423L117.793 145.675C117.793 146.403 117.66 147.031 117.394 147.558C117.133 148.085 116.762 148.491 116.281 148.776C115.805 149.056 115.243 149.196 114.594 149.196ZM117.114 149V146.977H116.974V141.44H118.227V149H117.114ZM123.659 149.21C122.95 149.21 122.352 149.035 121.867 148.685C121.382 148.33 121.013 147.852 120.761 147.25C120.514 146.643 120.39 145.964 120.39 145.213C120.39 144.452 120.514 143.771 120.761 143.169C121.013 142.567 121.382 142.093 121.867 141.748C122.357 141.403 122.957 141.23 123.666 141.23C124.366 141.23 124.968 141.405 125.472 141.755C125.981 142.1 126.37 142.574 126.641 143.176C126.912 143.778 127.047 144.457 127.047 145.213C127.047 145.969 126.912 146.648 126.641 147.25C126.37 147.852 125.981 148.33 125.472 148.685C124.968 149.035 124.364 149.21 123.659 149.21ZM120.18 152.36V141.44H121.293V147.005H121.433V152.36H120.18ZM123.505 148.069C124.004 148.069 124.417 147.943 124.744 147.691C125.071 147.439 125.316 147.098 125.479 146.669C125.642 146.235 125.724 145.75 125.724 145.213C125.724 144.681 125.642 144.2 125.479 143.771C125.32 143.342 125.073 143.001 124.737 142.749C124.406 142.497 123.983 142.371 123.47 142.371C122.98 142.371 122.574 142.492 122.252 142.735C121.93 142.973 121.69 143.307 121.531 143.736C121.372 144.161 121.293 144.653 121.293 145.213C121.293 145.764 121.37 146.256 121.524 146.69C121.683 147.119 121.925 147.458 122.252 147.705C122.579 147.948 122.996 148.069 123.505 148.069ZM130.731 149.21C130.166 149.21 129.692 149.107 129.31 148.902C128.932 148.692 128.645 148.417 128.449 148.076C128.257 147.735 128.162 147.362 128.162 146.956C128.162 146.559 128.236 146.216 128.386 145.927C128.54 145.633 128.754 145.39 129.03 145.199C129.305 145.003 129.634 144.849 130.017 144.737C130.376 144.639 130.777 144.555 131.221 144.485C131.669 144.41 132.121 144.343 132.579 144.282C133.036 144.221 133.463 144.163 133.86 144.107L133.412 144.366C133.426 143.694 133.29 143.197 133.006 142.875C132.726 142.553 132.24 142.392 131.55 142.392C131.092 142.392 130.691 142.497 130.346 142.707C130.005 142.912 129.765 143.248 129.625 143.715L128.442 143.358C128.624 142.695 128.976 142.175 129.499 141.797C130.021 141.419 130.71 141.23 131.564 141.23C132.25 141.23 132.838 141.354 133.328 141.601C133.822 141.844 134.177 142.212 134.392 142.707C134.499 142.94 134.567 143.195 134.595 143.47C134.623 143.741 134.637 144.025 134.637 144.324V149H133.531V147.187L133.79 147.355C133.505 147.966 133.106 148.428 132.593 148.741C132.084 149.054 131.463 149.21 130.731 149.21ZM130.92 148.167C131.368 148.167 131.755 148.088 132.082 147.929C132.413 147.766 132.679 147.553 132.88 147.292C133.08 147.026 133.211 146.737 133.272 146.424C133.342 146.191 133.379 145.932 133.384 145.647C133.393 145.358 133.398 145.136 133.398 144.982L133.832 145.171C133.426 145.227 133.027 145.281 132.635 145.332C132.243 145.383 131.872 145.439 131.522 145.5C131.172 145.556 130.857 145.624 130.577 145.703C130.371 145.768 130.178 145.852 129.996 145.955C129.818 146.058 129.674 146.191 129.562 146.354C129.454 146.513 129.401 146.711 129.401 146.949C129.401 147.154 129.452 147.35 129.555 147.537C129.662 147.724 129.825 147.875 130.045 147.992C130.269 148.109 130.56 148.167 130.92 148.167ZM141.84 149V145.213C141.84 144.854 141.807 144.508 141.742 144.177C141.681 143.846 141.571 143.549 141.413 143.288C141.259 143.022 141.049 142.812 140.783 142.658C140.521 142.504 140.19 142.427 139.789 142.427C139.476 142.427 139.191 142.481 138.935 142.588C138.683 142.691 138.466 142.849 138.284 143.064C138.102 143.279 137.959 143.549 137.857 143.876C137.759 144.198 137.71 144.578 137.71 145.017L136.891 144.765C136.891 144.032 137.021 143.405 137.283 142.882C137.549 142.355 137.92 141.951 138.396 141.671C138.876 141.386 139.441 141.244 140.09 141.244C140.58 141.244 140.997 141.321 141.343 141.475C141.688 141.629 141.975 141.834 142.204 142.091C142.432 142.343 142.612 142.628 142.743 142.945C142.873 143.258 142.964 143.577 143.016 143.904C143.072 144.226 143.1 144.532 143.1 144.821V149H141.84ZM136.45 149V141.44H137.57V143.463H137.71V149H136.45ZM148.036 149.21C147.271 149.21 146.62 149.04 146.083 148.699C145.551 148.354 145.145 147.88 144.865 147.278C144.585 146.676 144.44 145.99 144.431 145.22C144.44 144.431 144.587 143.738 144.872 143.141C145.161 142.539 145.574 142.07 146.111 141.734C146.648 141.398 147.294 141.23 148.05 141.23C148.848 141.23 149.534 141.426 150.108 141.818C150.687 142.21 151.074 142.747 151.27 143.428L150.038 143.799C149.879 143.36 149.62 143.02 149.261 142.777C148.906 142.534 148.498 142.413 148.036 142.413C147.518 142.413 147.091 142.534 146.755 142.777C146.419 143.015 146.169 143.346 146.006 143.771C145.843 144.191 145.759 144.674 145.754 145.22C145.763 146.06 145.957 146.739 146.335 147.257C146.718 147.77 147.285 148.027 148.036 148.027C148.531 148.027 148.941 147.915 149.268 147.691C149.595 147.462 149.842 147.133 150.01 146.704L151.27 147.033C151.009 147.738 150.6 148.277 150.045 148.65C149.49 149.023 148.82 149.21 148.036 149.21ZM153.475 152.36L154.938 148.384L154.959 149.56L151.655 141.44H152.964L155.554 147.971H155.106L157.535 141.44H158.802L154.686 152.36H153.475ZM162.761 149V138.92H166.744C166.842 138.92 166.959 138.925 167.094 138.934C167.23 138.939 167.36 138.953 167.486 138.976C168.032 139.06 168.49 139.247 168.858 139.536C169.232 139.825 169.512 140.192 169.698 140.635C169.885 141.074 169.978 141.561 169.978 142.098C169.978 142.877 169.775 143.554 169.369 144.128C168.963 144.697 168.368 145.054 167.584 145.199L167.108 145.276H164.007V149H162.761ZM168.76 149L166.772 144.898L168.004 144.52L170.188 149H168.76ZM164.007 144.093H166.702C166.791 144.093 166.891 144.088 167.003 144.079C167.12 144.07 167.23 144.053 167.332 144.03C167.654 143.955 167.916 143.82 168.116 143.624C168.322 143.423 168.471 143.19 168.564 142.924C168.658 142.653 168.704 142.378 168.704 142.098C168.704 141.818 168.658 141.545 168.564 141.279C168.471 141.008 168.322 140.773 168.116 140.572C167.916 140.371 167.654 140.236 167.332 140.166C167.23 140.138 167.12 140.122 167.003 140.117C166.891 140.108 166.791 140.103 166.702 140.103H164.007V144.093ZM173.879 149.21C173.314 149.21 172.841 149.107 172.458 148.902C172.08 148.692 171.793 148.417 171.597 148.076C171.406 147.735 171.31 147.362 171.31 146.956C171.31 146.559 171.385 146.216 171.534 145.927C171.688 145.633 171.903 145.39 172.178 145.199C172.453 145.003 172.782 144.849 173.165 144.737C173.524 144.639 173.926 144.555 174.369 144.485C174.817 144.41 175.27 144.343 175.727 144.282C176.184 144.221 176.611 144.163 177.008 144.107L176.56 144.366C176.574 143.694 176.439 143.197 176.154 142.875C175.874 142.553 175.389 142.392 174.698 142.392C174.241 142.392 173.839 142.497 173.494 142.707C173.153 142.912 172.913 143.248 172.773 143.715L171.59 143.358C171.772 142.695 172.124 142.175 172.647 141.797C173.17 141.419 173.858 141.23 174.712 141.23C175.398 141.23 175.986 141.354 176.476 141.601C176.971 141.844 177.325 142.212 177.54 142.707C177.647 142.94 177.715 143.195 177.743 143.47C177.771 143.741 177.785 144.025 177.785 144.324V149H176.679V147.187L176.938 147.355C176.653 147.966 176.254 148.428 175.741 148.741C175.232 149.054 174.612 149.21 173.879 149.21ZM174.068 148.167C174.516 148.167 174.903 148.088 175.23 147.929C175.561 147.766 175.827 147.553 176.028 147.292C176.229 147.026 176.359 146.737 176.42 146.424C176.49 146.191 176.527 145.932 176.532 145.647C176.541 145.358 176.546 145.136 176.546 144.982L176.98 145.171C176.574 145.227 176.175 145.281 175.783 145.332C175.391 145.383 175.02 145.439 174.67 145.5C174.32 145.556 174.005 145.624 173.725 145.703C173.52 145.768 173.326 145.852 173.144 145.955C172.967 146.058 172.822 146.191 172.71 146.354C172.603 146.513 172.549 146.711 172.549 146.949C172.549 147.154 172.6 147.35 172.703 147.537C172.81 147.724 172.974 147.875 173.193 147.992C173.417 148.109 173.709 148.167 174.068 148.167ZM183.826 149C183.378 149.089 182.935 149.124 182.496 149.105C182.062 149.091 181.675 149.005 181.334 148.846C180.993 148.683 180.734 148.431 180.557 148.09C180.408 147.791 180.326 147.49 180.312 147.187C180.303 146.879 180.298 146.531 180.298 146.144V139.34H181.544V146.088C181.544 146.396 181.546 146.66 181.551 146.879C181.56 147.098 181.609 147.287 181.698 147.446C181.866 147.745 182.132 147.92 182.496 147.971C182.865 148.022 183.308 148.008 183.826 147.929V149ZM178.765 142.469V141.44H183.826V142.469H178.765ZM188.322 149.21C187.58 149.21 186.932 149.047 186.376 148.72C185.826 148.389 185.396 147.929 185.088 147.341C184.78 146.748 184.626 146.058 184.626 145.269C184.626 144.443 184.778 143.729 185.081 143.127C185.385 142.52 185.807 142.054 186.348 141.727C186.894 141.396 187.534 141.23 188.266 141.23C189.027 141.23 189.673 141.405 190.205 141.755C190.742 142.105 191.143 142.604 191.409 143.253C191.68 143.902 191.797 144.674 191.759 145.57H190.499V145.122C190.485 144.193 190.296 143.5 189.932 143.043C189.568 142.581 189.027 142.35 188.308 142.35C187.538 142.35 186.953 142.597 186.551 143.092C186.15 143.587 185.949 144.296 185.949 145.22C185.949 146.111 186.15 146.802 186.551 147.292C186.953 147.782 187.524 148.027 188.266 148.027C188.766 148.027 189.2 147.913 189.568 147.684C189.937 147.455 190.226 147.126 190.436 146.697L191.633 147.11C191.339 147.777 190.896 148.295 190.303 148.664C189.715 149.028 189.055 149.21 188.322 149.21ZM185.529 145.57V144.569H191.115V145.57H185.529Z" fill="#687588"/>
<path d="M92.26 170.384C93.388 170.384 94.404 170.652 95.308 171.188C96.212 171.716 96.924 172.452 97.444 173.396C97.972 174.332 98.236 175.412 98.236 176.636V181.904C98.236 183.208 97.972 184.348 97.444 185.324C96.924 186.292 96.192 187.04 95.248 187.568C94.304 188.096 93.2 188.36 91.936 188.36C91.064 188.36 90.24 188.212 89.464 187.916C88.688 187.612 87.992 187.148 87.376 186.524L89.452 184.496C89.764 184.856 90.136 185.14 90.568 185.348C91.008 185.548 91.464 185.648 91.936 185.648C92.608 185.648 93.196 185.492 93.7 185.18C94.204 184.86 94.596 184.448 94.876 183.944C95.156 183.432 95.296 182.884 95.296 182.3V179.432L95.812 180.008C95.324 180.584 94.732 181.036 94.036 181.364C93.34 181.684 92.608 181.844 91.84 181.844C90.76 181.844 89.8 181.596 88.96 181.1C88.128 180.604 87.472 179.932 86.992 179.084C86.52 178.228 86.284 177.26 86.284 176.18C86.284 175.1 86.556 174.124 87.1 173.252C87.644 172.372 88.368 171.676 89.272 171.164C90.184 170.644 91.18 170.384 92.26 170.384ZM92.26 173.144C91.7 173.144 91.188 173.28 90.724 173.552C90.26 173.824 89.892 174.192 89.62 174.656C89.348 175.112 89.212 175.62 89.212 176.18C89.212 176.74 89.344 177.252 89.608 177.716C89.88 178.18 90.244 178.548 90.7 178.82C91.164 179.092 91.676 179.228 92.236 179.228C92.796 179.228 93.308 179.092 93.772 178.82C94.236 178.548 94.604 178.18 94.876 177.716C95.156 177.252 95.296 176.74 95.296 176.18C95.296 175.636 95.16 175.136 94.888 174.68C94.616 174.216 94.248 173.844 93.784 173.564C93.328 173.284 92.82 173.144 92.26 173.144ZM107.166 170.384C108.294 170.384 109.31 170.652 110.214 171.188C111.118 171.716 111.83 172.452 112.35 173.396C112.878 174.332 113.142 175.412 113.142 176.636V181.904C113.142 183.208 112.878 184.348 112.35 185.324C111.83 186.292 111.098 187.04 110.154 187.568C109.21 188.096 108.106 188.36 106.842 188.36C105.97 188.36 105.146 188.212 104.37 187.916C103.594 187.612 102.898 187.148 102.282 186.524L104.358 184.496C104.67 184.856 105.042 185.14 105.474 185.348C105.914 185.548 106.37 185.648 106.842 185.648C107.514 185.648 108.102 185.492 108.606 185.18C109.11 184.86 109.502 184.448 109.782 183.944C110.062 183.432 110.202 182.884 110.202 182.3V179.432L110.718 180.008C110.23 180.584 109.638 181.036 108.942 181.364C108.246 181.684 107.514 181.844 106.746 181.844C105.666 181.844 104.706 181.596 103.866 181.1C103.034 180.604 102.378 179.932 101.898 179.084C101.426 178.228 101.19 177.26 101.19 176.18C101.19 175.1 101.462 174.124 102.006 173.252C102.55 172.372 103.274 171.676 104.178 171.164C105.09 170.644 106.086 170.384 107.166 170.384ZM107.166 173.144C106.606 173.144 106.094 173.28 105.63 173.552C105.166 173.824 104.798 174.192 104.526 174.656C104.254 175.112 104.118 175.62 104.118 176.18C104.118 176.74 104.25 177.252 104.514 177.716C104.786 178.18 105.15 178.548 105.606 178.82C106.07 179.092 106.582 179.228 107.142 179.228C107.702 179.228 108.214 179.092 108.678 178.82C109.142 178.548 109.51 178.18 109.782 177.716C110.062 177.252 110.202 176.74 110.202 176.18C110.202 175.636 110.066 175.136 109.794 174.68C109.522 174.216 109.154 173.844 108.69 173.564C108.234 173.284 107.726 173.144 107.166 173.144ZM118.893 188L116.973 186.08L132.345 170.72L134.265 172.652L118.893 188ZM130.665 188.36C129.873 188.36 129.149 188.168 128.493 187.784C127.845 187.392 127.325 186.872 126.932 186.224C126.541 185.568 126.345 184.84 126.345 184.04C126.345 183.256 126.545 182.536 126.945 181.88C127.345 181.224 127.873 180.7 128.529 180.308C129.185 179.916 129.897 179.72 130.665 179.72C131.457 179.72 132.181 179.916 132.837 180.308C133.493 180.692 134.013 181.212 134.397 181.868C134.789 182.516 134.985 183.24 134.985 184.04C134.985 184.84 134.789 185.568 134.397 186.224C134.013 186.872 133.493 187.392 132.837 187.784C132.181 188.168 131.457 188.36 130.665 188.36ZM130.665 185.888C130.993 185.888 131.297 185.804 131.577 185.636C131.865 185.468 132.093 185.244 132.261 184.964C132.429 184.684 132.513 184.376 132.513 184.04C132.513 183.704 132.429 183.396 132.261 183.116C132.093 182.836 131.865 182.612 131.577 182.444C131.297 182.276 130.993 182.192 130.665 182.192C130.329 182.192 130.021 182.276 129.741 182.444C129.461 182.612 129.233 182.836 129.057 183.116C128.889 183.396 128.805 183.704 128.805 184.04C128.805 184.376 128.889 184.684 129.057 184.964C129.233 185.244 129.461 185.468 129.741 185.636C130.021 185.804 130.329 185.888 130.665 185.888ZM120.573 179C119.781 179 119.057 178.808 118.401 178.424C117.745 178.032 117.221 177.512 116.829 176.864C116.445 176.208 116.253 175.48 116.253 174.68C116.253 173.896 116.453 173.176 116.853 172.52C117.253 171.864 117.781 171.34 118.437 170.948C119.093 170.556 119.805 170.36 120.573 170.36C121.365 170.36 122.085 170.556 122.733 170.948C123.389 171.332 123.913 171.852 124.305 172.508C124.697 173.156 124.893 173.88 124.893 174.68C124.893 175.48 124.697 176.208 124.305 176.864C123.913 177.512 123.389 178.032 122.733 178.424C122.085 178.808 121.365 179 120.573 179ZM120.573 176.528C120.909 176.528 121.217 176.444 121.497 176.276C121.777 176.108 122.001 175.884 122.169 175.604C122.337 175.324 122.421 175.016 122.421 174.68C122.421 174.344 122.337 174.036 122.169 173.756C122.001 173.476 121.777 173.252 121.497 173.084C121.217 172.916 120.909 172.832 120.573 172.832C120.237 172.832 119.929 172.916 119.649 173.084C119.369 173.252 119.145 173.476 118.977 173.756C118.809 174.036 118.725 174.344 118.725 174.68C118.725 175.016 118.809 175.324 118.977 175.604C119.145 175.884 119.369 176.108 119.649 176.276C119.929 176.444 120.237 176.528 120.573 176.528Z" fill="#27A376"/>
</g>
<defs>
<filter id="filter0_d_2718_7244" x="101" y="0" width="237" height="153" filterUnits="userSpaceOnUse" color-interpolation-filters="sRGB">
<feFlood flood-opacity="0" result="BackgroundImageFix"/>
<feColorMatrix in="SourceAlpha" type="matrix" values="0 0 0 0 0 0 0 0 0 0 0 0 0 0 0 0 0 0 127 0" result="hardAlpha"/>
<feMorphology radius="20" operator="erode" in="SourceAlpha" result="effect1_dropShadow_2718_7244"/>
<feOffset dy="40"/>
<feGaussianBlur stdDeviation="25"/>
<feComposite in2="hardAlpha" operator="out"/>
<feColorMatrix type="matrix" values="0 0 0 0 0 0 0 0 0 0 0 0 0 0 0 0 0 0 0.05 0"/>
<feBlend mode="normal" in2="BackgroundImageFix" result="effect1_dropShadow_2718_7244"/>
<feBlend mode="normal" in="SourceGraphic" in2="effect1_dropShadow_2718_7244" result="shape"/>
</filter>
<filter id="filter1_d_2718_7244" x="39" y="122" width="237" height="153" filterUnits="userSpaceOnUse" color-interpolation-filters="sRGB">
<feFlood flood-opacity="0" result="BackgroundImageFix"/>
<feColorMatrix in="SourceAlpha" type="matrix" values="0 0 0 0 0 0 0 0 0 0 0 0 0 0 0 0 0 0 127 0" result="hardAlpha"/>
<feMorphology radius="20" operator="erode" in="SourceAlpha" result="effect1_dropShadow_2718_7244"/>
<feOffset dy="40"/>
<feGaussianBlur stdDeviation="25"/>
<feComposite in2="hardAlpha" operator="out"/>
<feColorMatrix type="matrix" values="0 0 0 0 0 0 0 0 0 0 0 0 0 0 0 0 0 0 0.05 0"/>
<feBlend mode="normal" in2="BackgroundImageFix" result="effect1_dropShadow_2718_7244"/>
<feBlend mode="normal" in="SourceGraphic" in2="effect1_dropShadow_2718_7244" result="shape"/>
</filter>
<linearGradient id="paint0_linear_2718_7244" x1="195.5" y1="200.5" x2="195.5" y2="301" gradientUnits="userSpaceOnUse">
<stop stop-color="#6938EF"/>
<stop offset="0.895" stop-color="white"/>
</linearGradient>
</defs>
</svg>
