<svg width="367" height="376" viewBox="0 0 367 376" fill="none" xmlns="http://www.w3.org/2000/svg">
<path d="M79.7012 141.889H6.13464V375.05H79.7012V141.889Z" fill="#F5F5F5"/>
<path d="M79.7107 141.889H42.9226V374.414H79.7107V141.889Z" fill="#EBEBEB"/>
<path d="M40.5113 119H14.5359V141.889H40.5113V119Z" fill="#F5F5F5"/>
<path d="M40.521 119H34.3286V141.889H40.521V119Z" fill="#EBEBEB"/>
<path d="M0 141.889V140.558H81.8618V141.889" fill="#E0E0E0"/>
<path d="M26.8918 151.872H20.6608V165H26.8918V151.872Z" fill="#FAFAFA"/>
<path d="M42.9227 170.16C42.9227 170.295 34.6855 170.41 24.5287 170.41C14.3719 170.41 6.13464 170.295 6.13464 170.16C6.13464 170.025 14.3719 169.909 24.5287 169.909C34.6855 169.909 42.9227 170.025 42.9227 170.16Z" fill="#E0E0E0"/>
<path d="M63.9981 151.872H57.7671V165H63.9981V151.872Z" fill="#E0E0E0"/>
<path d="M80.0291 170.16C80.0291 170.295 71.7918 170.411 61.635 170.411C51.4783 170.411 43.241 170.295 43.241 170.16C43.241 170.025 51.4783 169.909 61.635 169.909C71.7918 169.909 80.0291 170.025 80.0291 170.16Z" fill="#E0E0E0"/>
<path d="M63.9981 177.943H57.7671V191.071H63.9981V177.943Z" fill="#E0E0E0"/>
<path d="M80.0291 196.232C80.0291 196.367 71.7918 196.482 61.635 196.482C51.4783 196.482 43.241 196.367 43.241 196.232C43.241 196.096 51.4783 195.981 61.635 195.981C71.7918 195.981 80.0291 196.096 80.0291 196.232Z" fill="#E0E0E0"/>
<path d="M63.9981 204.797H57.7671V217.925H63.9981V204.797Z" fill="#E0E0E0"/>
<path d="M80.0291 223.085C80.0291 223.22 71.7918 223.336 61.635 223.336C51.4783 223.336 43.241 223.22 43.241 223.085C43.241 222.95 51.4783 222.834 61.635 222.834C71.7918 222.834 80.0291 222.95 80.0291 223.085Z" fill="#E0E0E0"/>
<path d="M63.9981 231.66H57.7671V244.788H63.9981V231.66Z" fill="#E0E0E0"/>
<path d="M80.0291 249.948C80.0291 250.083 71.7918 250.199 61.635 250.199C51.4783 250.199 43.241 250.083 43.241 249.948C43.241 249.813 51.4783 249.697 61.635 249.697C71.7918 249.697 80.0291 249.813 80.0291 249.948Z" fill="#E0E0E0"/>
<path d="M63.9981 257.751H57.7671V270.879H63.9981V257.751Z" fill="#E0E0E0"/>
<path d="M80.0291 276.029C80.0291 276.165 71.7918 276.28 61.635 276.28C51.4783 276.28 43.241 276.165 43.241 276.029C43.241 275.894 51.4783 275.779 61.635 275.779C71.7918 275.779 80.0291 275.894 80.0291 276.029Z" fill="#E0E0E0"/>
<path d="M63.9981 283.939H57.7671V297.066H63.9981V283.939Z" fill="#E0E0E0"/>
<path d="M63.9981 310.484H57.7671V323.611H63.9981V310.484Z" fill="#E0E0E0"/>
<path d="M80.0291 302.227C80.0291 302.362 71.7918 302.478 61.635 302.478C51.4783 302.478 43.241 302.362 43.241 302.227C43.241 302.092 51.4783 301.976 61.635 301.976C71.7918 301.976 80.0291 302.092 80.0291 302.227Z" fill="#E0E0E0"/>
<path d="M26.8918 178.339H20.6608V191.467H26.8918V178.339Z" fill="#FAFAFA"/>
<path d="M42.9227 196.628C42.9227 196.763 34.6855 196.878 24.5287 196.878C14.3719 196.878 6.13464 196.763 6.13464 196.628C6.13464 196.493 14.3719 196.377 24.5287 196.377C34.6855 196.377 42.9227 196.493 42.9227 196.628Z" fill="#E0E0E0"/>
<path d="M26.8918 204.807H20.6608V217.934H26.8918V204.807Z" fill="#FAFAFA"/>
<path d="M42.9227 223.095C42.9227 223.23 34.6855 223.346 24.5287 223.346C14.3719 223.346 6.13464 223.23 6.13464 223.095C6.13464 222.96 14.3719 222.844 24.5287 222.844C34.6855 222.844 42.9227 222.96 42.9227 223.095Z" fill="#E0E0E0"/>
<path d="M26.8918 231.274H20.6608V244.401H26.8918V231.274Z" fill="#FAFAFA"/>
<path d="M42.9227 249.562C42.9227 249.697 34.6855 249.813 24.5287 249.813C14.3719 249.813 6.13464 249.697 6.13464 249.562C6.13464 249.427 14.3719 249.312 24.5287 249.312C34.6855 249.312 42.9227 249.427 42.9227 249.562Z" fill="#E0E0E0"/>
<path d="M26.8918 257.751H20.6608V270.879H26.8918V257.751Z" fill="#FAFAFA"/>
<path d="M42.9227 276.03C42.9227 276.165 34.6855 276.28 24.5287 276.28C14.3719 276.28 6.13464 276.165 6.13464 276.03C6.13464 275.894 14.3719 275.779 24.5287 275.779C34.6855 275.779 42.9227 275.894 42.9227 276.03Z" fill="#E0E0E0"/>
<path d="M26.8918 284.219H20.6608V297.346H26.8918V284.219Z" fill="#FAFAFA"/>
<path d="M42.9227 302.497C42.9227 302.632 34.6855 302.747 24.5287 302.747C14.3719 302.747 6.13464 302.632 6.13464 302.497C6.13464 302.362 14.3719 302.246 24.5287 302.246C34.6855 302.246 42.9227 302.362 42.9227 302.497Z" fill="#E0E0E0"/>
<path d="M26.8918 310.686H20.6608V323.813H26.8918V310.686Z" fill="#FAFAFA"/>
<path d="M166.679 99.4381H79.7338V374.982H166.679V99.4381Z" fill="#F5F5F5"/>
<path d="M166.679 103.055H123.206V374.992H166.679V103.055Z" fill="#EBEBEB"/>
<path d="M120.37 76H89.6687V103.056H120.37V76Z" fill="#F5F5F5"/>
<path d="M120.37 76H113.05V103.056H120.37V76Z" fill="#EBEBEB"/>
<path d="M72.49 103.056V101.474H169.225V103.056" fill="#E0E0E0"/>
<path d="M104.262 114.852H96.9028V130.372H104.262V114.852Z" fill="#FAFAFA"/>
<path d="M123.206 136.458C123.206 136.622 113.474 136.757 101.475 136.757C89.4758 136.757 79.7338 136.622 79.7338 136.458C79.7338 136.294 89.4662 136.159 101.475 136.159C113.484 136.159 123.206 136.294 123.206 136.458Z" fill="#E0E0E0"/>
<path d="M148.111 114.852H140.752V130.371H148.111V114.852Z" fill="#E0E0E0"/>
<path d="M167.055 136.457C167.055 136.621 157.323 136.756 145.324 136.756C133.325 136.756 123.583 136.621 123.583 136.457C123.583 136.293 133.315 136.158 145.324 136.158C157.332 136.158 167.055 136.293 167.055 136.457Z" fill="#E0E0E0"/>
<path d="M148.111 145.66H140.752V161.179H148.111V145.66Z" fill="#E0E0E0"/>
<path d="M167.055 167.266C167.055 167.43 157.323 167.565 145.324 167.565C133.325 167.565 123.583 167.43 123.583 167.266C123.583 167.102 133.315 166.967 145.324 166.967C157.332 166.967 167.055 167.102 167.055 167.266Z" fill="#E0E0E0"/>
<path d="M148.111 177.394H140.752V192.914H148.111V177.394Z" fill="#E0E0E0"/>
<path d="M167.055 199.01C167.055 199.174 157.323 199.309 145.324 199.309C133.325 199.309 123.583 199.174 123.583 199.01C123.583 198.846 133.315 198.711 145.324 198.711C157.332 198.711 167.055 198.846 167.055 199.01Z" fill="#E0E0E0"/>
<path d="M148.111 209.137H140.752V224.657H148.111V209.137Z" fill="#E0E0E0"/>
<path d="M167.055 230.743C167.055 230.907 157.323 231.042 145.324 231.042C133.325 231.042 123.583 230.907 123.583 230.743C123.583 230.579 133.315 230.444 145.324 230.444C157.332 230.444 167.055 230.579 167.055 230.743Z" fill="#E0E0E0"/>
<path d="M148.111 239.965H140.752V255.484H148.111V239.965Z" fill="#E0E0E0"/>
<path d="M167.055 261.57C167.055 261.734 157.323 261.869 145.324 261.869C133.325 261.869 123.583 261.734 123.583 261.57C123.583 261.406 133.315 261.271 145.324 261.271C157.332 261.271 167.055 261.406 167.055 261.57Z" fill="#E0E0E0"/>
<path d="M148.111 270.927H140.752V286.446H148.111V270.927Z" fill="#E0E0E0"/>
<path d="M148.111 302.284H140.752V317.804H148.111V302.284Z" fill="#E0E0E0"/>
<path d="M167.055 292.532C167.055 292.696 157.323 292.831 145.324 292.831C133.325 292.831 123.583 292.696 123.583 292.532C123.583 292.368 133.315 292.233 145.324 292.233C157.332 292.233 167.055 292.368 167.055 292.532Z" fill="#E0E0E0"/>
<path d="M104.262 146.133H96.9028V161.652H104.262V146.133Z" fill="#FAFAFA"/>
<path d="M123.206 167.738C123.206 167.902 113.474 168.037 101.475 168.037C89.4758 168.037 79.7338 167.902 79.7338 167.738C79.7338 167.574 89.4662 167.439 101.475 167.439C113.484 167.439 123.206 167.574 123.206 167.738Z" fill="#E0E0E0"/>
<path d="M104.262 177.403H96.9028V192.923H104.262V177.403Z" fill="#FAFAFA"/>
<path d="M123.206 199.019C123.206 199.183 113.474 199.318 101.475 199.318C89.4758 199.318 79.7338 199.183 79.7338 199.019C79.7338 198.855 89.4662 198.72 101.475 198.72C113.484 198.72 123.206 198.855 123.206 199.019Z" fill="#E0E0E0"/>
<path d="M104.262 208.684H96.9028V224.204H104.262V208.684Z" fill="#FAFAFA"/>
<path d="M123.206 230.3C123.206 230.464 113.474 230.599 101.475 230.599C89.4758 230.599 79.7338 230.464 79.7338 230.3C79.7338 230.136 89.4662 230.001 101.475 230.001C113.484 230.001 123.206 230.136 123.206 230.3Z" fill="#E0E0E0"/>
<path d="M104.262 239.964H96.9028V255.484H104.262V239.964Z" fill="#FAFAFA"/>
<path d="M123.206 261.571C123.206 261.735 113.474 261.87 101.475 261.87C89.4758 261.87 79.7338 261.735 79.7338 261.571C79.7338 261.407 89.4662 261.272 101.475 261.272C113.484 261.272 123.206 261.407 123.206 261.571Z" fill="#E0E0E0"/>
<path d="M104.262 271.245H96.9028V286.764H104.262V271.245Z" fill="#FAFAFA"/>
<path d="M123.206 292.851C123.206 293.015 113.474 293.15 101.475 293.15C89.4758 293.15 79.7338 293.015 79.7338 292.851C79.7338 292.687 89.4662 292.552 101.475 292.552C113.484 292.552 123.206 292.687 123.206 292.851Z" fill="#E0E0E0"/>
<path d="M104.262 302.525H96.9028V318.045H104.262V302.525Z" fill="#FAFAFA"/>
<path d="M261.49 142.182H174.49V374H261.49V142.182Z" fill="#F5F5F5"/>
<path d="M261.49 146.213H218.49V374H261.49V146.213Z" fill="#EBEBEB"/>
<path d="M215.37 119H184.669V146.27H215.37V119Z" fill="#F5F5F5"/>
<path d="M215.37 119H208.05V146.27H215.37V119Z" fill="#EBEBEB"/>
<path d="M167.49 146.27V144.675H264.225V146.27" fill="#E0E0E0"/>
<path d="M199.262 158.159H191.903V173.801H199.262V158.159Z" fill="#FAFAFA"/>
<path d="M218.206 179.936C218.206 180.101 208.474 180.237 196.475 180.237C184.476 180.237 174.734 180.101 174.734 179.936C174.734 179.771 184.466 179.635 196.475 179.635C208.484 179.635 218.206 179.771 218.206 179.936Z" fill="#E0E0E0"/>
<path d="M243.111 158.159H235.752V173.801H243.111V158.159Z" fill="#E0E0E0"/>
<path d="M262.055 179.935C262.055 180.101 252.323 180.237 240.324 180.237C228.325 180.237 218.583 180.101 218.583 179.935C218.583 179.77 228.315 179.634 240.324 179.634C252.332 179.634 262.055 179.77 262.055 179.935Z" fill="#E0E0E0"/>
<path d="M243.111 189.21H235.752V204.853H243.111V189.21Z" fill="#E0E0E0"/>
<path d="M262.055 210.987C262.055 211.153 252.323 211.289 240.324 211.289C228.325 211.289 218.583 211.153 218.583 210.987C218.583 210.822 228.315 210.686 240.324 210.686C252.332 210.686 262.055 210.822 262.055 210.987Z" fill="#E0E0E0"/>
<path d="M243.111 221.195H235.752V236.838H243.111V221.195Z" fill="#E0E0E0"/>
<path d="M262.055 242.982C262.055 243.147 252.323 243.283 240.324 243.283C228.325 243.283 218.583 243.147 218.583 242.982C218.583 242.817 228.315 242.681 240.324 242.681C252.332 242.681 262.055 242.817 262.055 242.982Z" fill="#E0E0E0"/>
<path d="M243.111 253.19H235.752V268.832H243.111V253.19Z" fill="#E0E0E0"/>
<path d="M262.055 274.966C262.055 275.131 252.323 275.268 240.324 275.268C228.325 275.268 218.583 275.131 218.583 274.966C218.583 274.801 228.315 274.665 240.324 274.665C252.332 274.665 262.055 274.801 262.055 274.966Z" fill="#E0E0E0"/>
<path d="M243.111 284.261H235.752V299.903H243.111V284.261Z" fill="#E0E0E0"/>
<path d="M262.055 306.037C262.055 306.203 252.323 306.339 240.324 306.339C228.325 306.339 218.583 306.203 218.583 306.037C218.583 305.872 228.315 305.736 240.324 305.736C252.332 305.736 262.055 305.872 262.055 306.037Z" fill="#E0E0E0"/>
<path d="M243.111 315.467H235.752V331.11H243.111V315.467Z" fill="#E0E0E0"/>
<path d="M243.111 347.073H235.752V362.716H243.111V347.073Z" fill="#E0E0E0"/>
<path d="M262.055 337.244C262.055 337.409 252.323 337.545 240.324 337.545C228.325 337.545 218.583 337.409 218.583 337.244C218.583 337.079 228.315 336.943 240.324 336.943C252.332 336.943 262.055 337.079 262.055 337.244Z" fill="#E0E0E0"/>
<path d="M199.262 189.687H191.903V205.329H199.262V189.687Z" fill="#FAFAFA"/>
<path d="M218.206 211.464C218.206 211.629 208.474 211.765 196.475 211.765C184.476 211.765 174.734 211.629 174.734 211.464C174.734 211.298 184.466 211.162 196.475 211.162C208.484 211.162 218.206 211.298 218.206 211.464Z" fill="#E0E0E0"/>
<path d="M199.262 221.205H191.903V236.847H199.262V221.205Z" fill="#FAFAFA"/>
<path d="M218.206 242.992C218.206 243.157 208.474 243.293 196.475 243.293C184.476 243.293 174.734 243.157 174.734 242.992C174.734 242.826 184.466 242.69 196.475 242.69C208.484 242.69 218.206 242.826 218.206 242.992Z" fill="#E0E0E0"/>
<path d="M199.262 252.733H191.903V268.375H199.262V252.733Z" fill="#FAFAFA"/>
<path d="M218.206 274.52C218.206 274.685 208.474 274.821 196.475 274.821C184.476 274.821 174.734 274.685 174.734 274.52C174.734 274.354 184.466 274.218 196.475 274.218C208.484 274.218 218.206 274.354 218.206 274.52Z" fill="#E0E0E0"/>
<path d="M199.262 284.26H191.903V299.902H199.262V284.26Z" fill="#FAFAFA"/>
<path d="M218.206 306.038C218.206 306.203 208.474 306.339 196.475 306.339C184.476 306.339 174.734 306.203 174.734 306.038C174.734 305.872 184.466 305.736 196.475 305.736C208.484 305.736 218.206 305.872 218.206 306.038Z" fill="#E0E0E0"/>
<path d="M199.262 315.788H191.903V331.43H199.262V315.788Z" fill="#FAFAFA"/>
<path d="M218.206 337.565C218.206 337.73 208.474 337.867 196.475 337.867C184.476 337.867 174.734 337.73 174.734 337.565C174.734 337.4 184.466 337.264 196.475 337.264C208.484 337.264 218.206 337.4 218.206 337.565Z" fill="#E0E0E0"/>
<path d="M199.262 347.316H191.903V362.959H199.262V347.316Z" fill="#FAFAFA"/>
<path d="M165.939 27.8557C166.838 21.3871 157.602 16.0743 150.648 15.5139C147.336 15.2453 143.895 15.7474 140.761 14.6732C133.961 12.3379 131.241 3.66245 124.606 0.895166C119.651 -1.17154 113.939 0.673315 109.125 3.05528C104.312 5.44892 99.5696 8.44973 94.1886 8.78834C89.5172 9.08025 84.4436 7.37551 80.3517 9.62903C77.3005 11.3104 75.704 14.7783 72.9011 16.8216C70.1574 18.8183 66.574 19.2503 63.168 19.4254C59.762 19.6123 56.226 19.6473 53.1274 21.0484C50.0289 22.4496 47.4508 25.6956 48.1012 29L165.939 27.8557Z" fill="#F5F5F5"/>
<path d="M283.939 88.8557C284.838 82.3871 275.602 77.0743 268.648 76.5139C265.336 76.2453 261.895 76.7474 258.761 75.6732C251.961 73.3379 249.241 64.6624 242.606 61.8952C237.651 59.8285 231.939 61.6733 227.125 64.0553C222.312 66.4489 217.57 69.4497 212.189 69.7883C207.517 70.0802 202.444 68.3755 198.352 70.629C195.301 72.3104 193.704 75.7783 190.901 77.8216C188.157 79.8183 184.574 80.2503 181.168 80.4254C177.762 80.6123 174.226 80.6473 171.127 82.0484C168.029 83.4496 165.451 86.6956 166.101 90L283.939 88.8557Z" fill="#F5F5F5"/>
<path d="M366.688 36.2375C367.17 32.6976 362.184 29.7943 358.431 29.4856C356.647 29.3409 354.785 29.611 353.088 29.0226C349.413 27.7397 347.947 23.0038 344.368 21.4894C341.687 20.3609 338.61 21.364 336.006 22.6758C333.411 23.978 330.845 25.6274 327.942 25.8106C325.415 25.9746 322.675 25.039 320.467 26.2736C318.817 27.19 317.959 29.0901 316.444 30.209C314.959 31.299 313.03 31.5304 311.188 31.6365C309.345 31.733 307.445 31.7523 305.767 32.5239C304.088 33.2956 302.699 35.0607 303.056 36.8741L366.688 36.2471V36.2375Z" fill="#F5F5F5"/>
<path d="M319.125 69.2659C319.125 69.2659 316.514 66.4522 315.244 67.1225C313.974 67.7929 313.066 69.6187 312.563 70.6683C312.007 71.8326 313.216 72.7411 313.718 72.5647C314.221 72.3795 315.438 70.9858 315.438 70.9858L317.837 72.9352L317.917 76.2163L317.776 77.1778L315.676 76.6309L315.244 74.1524C315.085 73.2527 313.974 72.8117 313.321 73.4467C313.066 73.6937 312.88 74.0818 312.836 74.6728C312.695 76.8073 312.88 80.5207 315.297 81.6674C317.714 82.814 322.045 84.0842 322.045 84.0842L324.029 86.1305L332.268 84.4458L330.671 80.8823L329.904 69.8921C329.904 69.8921 332.435 65.332 332.259 63.806C332.082 62.2801 331.033 57.7464 331.033 57.7464C331.033 57.7464 329.754 57.2525 329.489 58.6549C329.225 60.0662 329.63 63.8325 329.63 63.8325L327.469 67.493L325.282 55.4266C325.114 54.5005 323.862 54.2624 323.403 55.0826C323.191 55.4531 323.059 56.0088 323.077 56.8291C323.147 59.8986 324.312 67.2019 323.95 67.2989C323.588 67.3959 322.609 66.9108 322.195 65.4202C321.815 64.0618 319.69 58.1874 318.825 55.8324C318.614 55.2502 317.82 55.1179 317.458 55.6207C316.991 56.2646 316.629 57.4024 317.123 59.387C317.723 61.8126 319.01 66.655 319.125 67.2372C319.24 67.8105 319.125 69.2482 319.125 69.2482V69.2659Z" fill="#FFBF9D"/>
<path d="M324.62 79.4182C324.559 79.4535 324.329 79.1183 323.871 78.6861C323.421 78.2451 322.706 77.7247 321.807 77.3895C320.907 77.0543 320.025 76.9749 319.39 77.0102C318.755 77.0455 318.367 77.1425 318.34 77.072C318.323 77.0279 318.693 76.8162 319.355 76.7015C320.016 76.5868 320.977 76.6133 321.957 76.9749C322.927 77.3366 323.677 77.954 324.1 78.4744C324.523 78.9948 324.664 79.4006 324.62 79.4182Z" fill="#FF9A6C"/>
<path d="M303.081 332.899L316.602 353.821L322.53 373.455C322.953 374.866 324.497 375.625 325.873 375.104C326.649 374.813 327.266 374.178 327.434 373.367C328.501 368.392 332.197 345.521 331.491 344.453C330.327 342.689 319.69 324.996 319.69 324.996L303.072 332.89L303.081 332.899Z" fill="#263238"/>
<path d="M325.873 375.104L330.618 343.024L331.174 343.924C331.65 344.7 331.844 345.618 331.703 346.526C331.333 348.934 330.151 360.489 327.513 373.331C327.346 374.169 326.684 374.822 325.882 375.104H325.873Z" fill="#455A64"/>
<g opacity="0.6">
<path d="M323.059 342.416C322.75 343.113 323.076 344.022 323.756 344.357C324.435 344.692 325.37 344.374 325.687 343.686C326.005 342.998 325.652 341.896 324.938 341.64C324.223 341.384 323.156 341.816 323.006 342.566" fill="white"/>
</g>
<path d="M325.026 362.844C324.938 362.977 323.782 362.156 322.151 362.333C320.519 362.465 319.531 363.479 319.416 363.365C319.363 363.321 319.531 362.994 319.989 362.615C320.439 362.236 321.198 361.865 322.098 361.786C322.997 361.706 323.818 361.927 324.329 362.209C324.841 362.491 325.07 362.782 325.026 362.835V362.844Z" fill="white"/>
<path d="M325.264 366.619C325.22 366.769 324.117 366.505 322.821 366.866C321.524 367.202 320.695 367.987 320.58 367.872C320.457 367.801 321.198 366.725 322.68 366.337C324.153 365.931 325.335 366.496 325.264 366.619Z" fill="white"/>
<path d="M325.608 357.472C325.573 357.631 323.87 357.208 321.815 357.596C319.751 357.949 318.305 358.937 318.217 358.796C318.111 358.707 319.504 357.437 321.718 357.058C323.923 356.652 325.67 357.358 325.608 357.472Z" fill="white"/>
<path d="M322.027 350.769C322.045 350.928 320.572 351.157 319.019 352.048C317.449 352.912 316.479 354.041 316.347 353.936C316.223 353.865 317.061 352.498 318.755 351.572C320.43 350.628 322.036 350.637 322.036 350.778L322.027 350.769Z" fill="white"/>
<path d="M319.522 346.315C319.531 346.474 317.917 346.491 316.355 347.558C314.768 348.59 314.124 350.063 313.974 349.993C313.912 349.966 313.974 349.561 314.291 348.979C314.6 348.396 315.2 347.664 316.047 347.1C316.893 346.535 317.802 346.271 318.463 346.209C319.125 346.147 319.531 346.244 319.522 346.306V346.315Z" fill="white"/>
<path d="M250.326 200.267C250.326 201.105 256.527 278.371 258.908 283.417C261.281 288.462 308.153 346.2 308.153 346.2L327.707 332.723L286.172 272.523L285.008 216.134L275.376 194.022L250.317 200.267H250.326Z" fill="#263238"/>
<path d="M308.964 184.804C309.458 185.977 315.906 204.394 316.391 212.209C316.885 220.033 302.437 358.822 302.437 358.822L278.578 356.917L284.779 222.317L274.485 194.022L308.964 184.804Z" fill="#263238"/>
<path d="M282.176 214.723C282.176 214.723 282.176 214.811 282.176 214.996C282.185 215.19 282.203 215.455 282.212 215.79C282.256 216.505 282.318 217.545 282.397 218.886C282.573 221.612 282.829 225.581 283.156 230.626C283.835 240.761 284.805 255.2 285.969 272.541V272.594L286.005 272.638C295.698 286.706 307.156 303.342 319.399 321.097C322.151 325.084 324.858 329.009 327.513 332.855L327.575 332.528C320.766 337.221 314.212 341.746 308.02 346.015L308.32 346.059C293.934 328.162 281.603 312.824 272.862 301.939C268.487 296.523 265.012 292.219 262.613 289.255C261.422 287.791 260.505 286.662 259.87 285.886C259.561 285.516 259.323 285.233 259.155 285.022C258.996 284.828 258.899 284.739 258.899 284.739C258.899 284.739 258.97 284.845 259.12 285.048C259.288 285.26 259.508 285.551 259.808 285.93C260.425 286.715 261.334 287.862 262.498 289.344C264.871 292.325 268.311 296.665 272.642 302.107C281.356 313.018 293.643 328.4 307.967 346.332L308.1 346.5L308.276 346.376C314.468 342.116 321.03 337.6 327.84 332.908L328.034 332.775L327.901 332.581C325.247 328.736 322.539 324.802 319.787 320.815C307.535 303.068 296.051 286.45 286.34 272.391L286.375 272.497C285.14 255.165 284.108 240.725 283.385 230.6C283.014 225.554 282.715 221.585 282.512 218.869C282.406 217.528 282.326 216.496 282.265 215.781C282.238 215.446 282.212 215.182 282.194 214.988C282.176 214.811 282.168 214.723 282.159 214.723H282.176Z" fill="#455A64"/>
<path d="M283.614 345.327L284.108 363.426C284.108 363.426 265.876 370.006 265.638 373.358L300.77 373.658L301.158 345.424L283.614 345.318V345.327Z" fill="#263238"/>
<path d="M294.984 361.997C295.663 362.191 296.121 362.959 295.963 363.647C295.795 364.335 295.019 364.811 294.34 364.626C293.661 364.449 293.07 363.541 293.317 362.879C293.555 362.218 294.498 361.706 295.116 362.041" fill="#E0E0E0"/>
<path d="M300.77 373.667L300.699 370.818L267.041 371.594C267.041 371.594 265.471 372.264 265.638 373.367L300.77 373.667Z" fill="#455A64"/>
<path d="M283.544 363.24C283.544 363.408 284.408 363.496 285.246 364.052C286.102 364.59 286.525 365.34 286.684 365.269C286.842 365.234 286.595 364.211 285.563 363.549C284.54 362.879 283.5 363.073 283.535 363.232L283.544 363.24Z" fill="white"/>
<path d="M279.839 364.731C279.795 364.899 280.536 365.199 281.118 365.922C281.718 366.637 281.859 367.422 282.026 367.413C282.185 367.439 282.318 366.434 281.577 365.543C280.853 364.643 279.839 364.564 279.839 364.723V364.731Z" fill="white"/>
<path d="M277.713 369.124C277.872 369.16 278.119 368.304 277.687 367.36C277.263 366.416 276.452 366.037 276.381 366.178C276.284 366.319 276.796 366.831 277.14 367.607C277.502 368.375 277.546 369.107 277.713 369.124Z" fill="white"/>
<path d="M283.888 359.104C283.958 359.263 284.743 359.034 285.713 359.104C286.684 359.157 287.433 359.492 287.53 359.342C287.627 359.219 286.895 358.575 285.757 358.505C284.62 358.425 283.808 358.963 283.888 359.095V359.104Z" fill="white"/>
<path d="M270.974 60.2598C272.888 60.0217 274.467 58.187 274.423 56.2554C274.379 54.3237 272.712 52.5684 270.789 52.4185C271.662 50.9455 271.477 48.9344 270.357 47.6378C269.237 46.35 267.261 45.8826 265.682 46.5441C265.215 44.9211 263.856 43.5893 262.225 43.1571C260.593 42.7249 258.749 43.2012 257.541 44.3831C255.354 43.2717 252.425 43.9156 250.908 45.8473C249.241 45.9355 247.715 47.2056 247.318 48.8198C246.921 50.4339 247.68 52.2685 249.109 53.1241" fill="#263238"/>
<path d="M277.845 81.1198C276.884 76.8949 274.194 68.3567 271.662 60.6565C268.946 52.383 260.328 47.5758 251.861 49.6222L251.023 49.825C242.079 52.5417 239.389 61.662 242.352 70.5265L251.455 102.033L272.994 99.6515L271.442 93.3361C271.442 93.3361 279.839 89.8785 277.845 81.1287V81.1198Z" fill="#FFBF9D"/>
<path d="M271.512 93.3009C271.512 93.3009 266.026 94.9768 259.279 92.7099C259.279 92.7099 263.477 98.3373 271.998 95.4531L271.521 93.3009H271.512Z" fill="#FF9A6C"/>
<path d="M269.766 69.1591C269.951 69.8118 269.545 70.4998 268.866 70.7027C268.187 70.9056 267.49 70.5439 267.314 69.8912C267.129 69.2385 267.534 68.5505 268.214 68.3477C268.893 68.1448 269.59 68.5064 269.766 69.1591Z" fill="#263238"/>
<path d="M270.816 65.3753C270.701 65.5782 269.59 65.1019 268.249 65.4282C266.908 65.737 266.088 66.6631 265.903 66.5308C265.814 66.4779 265.903 66.1427 266.255 65.7281C266.599 65.3136 267.252 64.8373 268.081 64.6432C268.919 64.4492 269.695 64.5815 270.172 64.802C270.657 65.0225 270.869 65.2783 270.816 65.3665V65.3753Z" fill="#263238"/>
<path d="M257.929 72.1408C258.114 72.7935 257.709 73.4815 257.029 73.6843C256.35 73.8872 255.653 73.5256 255.477 72.8729C255.292 72.2202 255.698 71.5322 256.377 71.3293C257.056 71.1264 257.753 71.4881 257.929 72.1408Z" fill="#263238"/>
<path d="M257.858 68.8242C257.761 69.0359 256.615 68.6478 255.301 69.08C253.986 69.4858 253.245 70.4736 253.051 70.359C252.954 70.3149 253.016 69.9709 253.342 69.5299C253.66 69.0888 254.26 68.5684 255.08 68.3038C255.9 68.0392 256.685 68.1186 257.179 68.3038C257.682 68.4802 257.911 68.7272 257.858 68.8242Z" fill="#263238"/>
<path d="M264.959 77.5739C264.932 77.5033 265.735 77.1505 267.04 76.6566C267.376 76.5419 267.684 76.3919 267.684 76.145C267.702 75.8804 267.473 75.5452 267.208 75.1835C266.688 74.4338 266.141 73.6488 265.567 72.8197C263.265 69.4503 261.519 66.6454 261.651 66.5484C261.784 66.4602 263.759 69.1151 266.061 72.4845C266.617 73.3136 267.155 74.1163 267.667 74.8748C267.887 75.2365 268.222 75.6246 268.17 76.1714C268.143 76.4537 267.931 76.6918 267.728 76.8065C267.526 76.93 267.332 76.9741 267.164 77.027C265.823 77.4239 264.985 77.6356 264.959 77.5651V77.5739Z" fill="#263238"/>
<path d="M256.288 64.4142C256.306 64.8111 255.089 65.0757 253.792 65.7726C252.487 66.4341 251.561 67.2897 251.261 67.0427C251.12 66.9192 251.19 66.5223 251.508 66.0107C251.817 65.508 252.399 64.917 253.175 64.5112C253.951 64.1055 254.754 63.9644 255.336 64.0085C255.918 64.0438 256.271 64.229 256.288 64.4142Z" fill="#263238"/>
<path d="M269.81 61.6797C269.598 62.0325 268.522 61.8914 267.287 62.0943C266.044 62.253 265.047 62.7029 264.756 62.4206C264.624 62.2795 264.73 61.9443 265.135 61.5739C265.532 61.2034 266.247 60.833 267.093 60.7095C267.94 60.586 268.725 60.7359 269.21 60.9741C269.704 61.2122 269.898 61.5121 269.81 61.6797Z" fill="#263238"/>
<path d="M269.854 56.8637C269.854 56.8637 266.238 51.9596 263.292 51.3157C259.728 50.5395 259.199 54.3676 255.962 54.2529C252.716 54.1382 249.32 53.3885 246.78 56.4845C244.002 59.8715 246.03 61.2916 246.754 65.2167C249.682 81.111 247.891 86.2445 245.289 79.0471C245.007 78.262 242.599 78.1562 241.444 74.8133C239.944 70.4824 238.471 65.1373 238.709 61.7502C238.903 58.8924 239.98 56.6961 242.202 54.0236C245.713 49.7986 251.578 48.3168 255.671 47.7523C259.764 47.1877 268.575 49.9309 269.854 56.8549V56.8637Z" fill="#263238"/>
<path d="M245.792 78.6768C245.413 77.3449 243.993 76.5599 242.687 77.0098C241.1 77.5566 239.512 78.915 240.429 82.2491C242.061 88.1676 247.662 85.3098 247.627 85.1422C247.6 85.0275 246.498 81.1465 245.792 78.6768Z" fill="#FFBF9D"/>
<path d="M245.722 83.2722C245.722 83.2722 245.642 83.3693 245.483 83.5016C245.333 83.6251 245.06 83.7574 244.716 83.7309C244.028 83.6691 243.225 82.8224 242.908 81.7639C242.749 81.2259 242.714 80.6879 242.793 80.2116C242.855 79.7264 243.049 79.3472 243.349 79.206C243.64 79.0473 243.913 79.1707 244.037 79.3207C244.16 79.4618 244.16 79.5941 244.187 79.5941C244.205 79.6029 244.284 79.4618 244.169 79.2325C244.116 79.1178 244.002 79.0032 243.834 78.9238C243.658 78.8444 243.437 78.8444 243.225 78.9238C242.776 79.0825 242.485 79.6118 242.405 80.141C242.299 80.6702 242.317 81.2876 242.502 81.8874C242.864 83.0694 243.781 84.0131 244.707 84.0308C245.157 84.0308 245.466 83.8015 245.607 83.6162C245.748 83.4222 245.748 83.2811 245.722 83.2722Z" fill="#FF9A6C"/>
<path d="M243.12 67.0959C244.019 67.4399 244.972 67.7839 245.925 67.6516C246.877 67.5193 247.821 66.7254 247.75 65.764C247.724 65.3318 247.503 64.8731 247.697 64.485C247.927 64.0264 248.562 63.9999 249.073 63.9294C250.855 63.6912 252.328 62.0418 252.363 60.2512C252.963 60.8069 253.986 60.5335 254.551 59.9337C255.115 59.3427 255.38 58.5313 255.759 57.808C256.139 57.0847 256.747 56.3703 257.559 56.2909C258.017 56.2468 258.494 56.4144 258.926 56.2644C259.693 56.0086 259.852 54.9943 259.781 54.1916C259.711 53.389 259.587 52.454 260.152 51.8719C260.672 51.3338 261.519 51.3691 262.269 51.2985C263.018 51.228 263.909 50.8399 263.918 50.0901C263.918 49.6932 263.671 49.3492 263.389 49.0758C262.11 47.8409 259.923 47.6733 258.476 48.7141C257.418 46.8883 255.204 45.7946 253.113 46.068C251.014 46.3415 249.162 47.9732 248.615 50.0107C247.08 49.1728 245.131 49.1287 243.561 49.9137C241.991 50.6899 240.844 52.2688 240.588 53.9976C239.045 53.9623 237.527 54.9237 236.892 56.335C236.257 57.7462 236.548 59.5103 237.598 60.6482C236.672 61.5214 236.01 62.8092 236.284 64.044C236.557 65.2877 238.057 66.2227 239.168 65.614C238.921 66.6901 239.627 67.8985 240.685 68.2161C241.744 68.5248 242.996 67.8985 243.367 66.8577" fill="#263238"/>
<path d="M259.358 50.3635C259.358 50.3635 259.376 50.3988 259.384 50.4693C259.393 50.5399 259.42 50.6546 259.42 50.7957C259.429 51.0868 259.42 51.519 259.261 52.0482C259.102 52.5686 258.811 53.2037 258.282 53.777C257.762 54.3503 256.985 54.8795 256.006 55.0648L256.077 54.906C256.386 55.3735 256.483 55.9997 256.35 56.5819C256.236 57.1728 255.971 57.7374 255.68 58.293C255.53 58.5665 255.415 58.8664 255.177 59.1398C254.948 59.4044 254.648 59.5896 254.313 59.7219C253.66 59.9689 252.849 59.9425 252.231 59.4926L252.443 59.3779C252.575 60.604 252.187 61.9447 251.287 62.9326C250.82 63.4794 250.176 63.894 249.488 64.0439C248.8 64.2027 248.103 64.1586 247.459 64.088L247.6 63.9822C247.459 64.8025 247.115 65.5522 246.63 66.1608C246.154 66.7694 245.439 67.2281 244.69 67.2281C243.208 67.2722 241.991 66.3284 241.541 65.27L241.691 65.2964C241.082 65.8433 240.341 66.0638 239.715 66.0903C239.08 66.1256 238.533 65.9756 238.136 65.7992C237.73 65.614 237.466 65.3935 237.298 65.2347C237.139 65.0671 237.069 64.9701 237.069 64.9613C237.095 64.926 237.378 65.367 238.18 65.7022C238.577 65.8609 239.106 65.9933 239.715 65.9403C240.315 65.8962 241.012 65.6757 241.576 65.1553L241.673 65.0671L241.726 65.1906C242.167 66.1697 243.323 67.0517 244.69 66.9988C245.369 66.9988 245.995 66.5842 246.445 66.0109C246.895 65.4376 247.221 64.7143 247.353 63.9469L247.371 63.8234H247.495C248.13 63.9028 248.8 63.9469 249.435 63.797C250.079 63.6558 250.652 63.2854 251.102 62.765C251.949 61.8388 252.311 60.5775 252.196 59.4132L252.169 59.1221L252.408 59.2986C252.937 59.6867 253.66 59.7219 254.251 59.4926C254.542 59.3868 254.815 59.2104 255.018 58.9898C255.212 58.7693 255.336 58.4694 255.495 58.196C255.786 57.6491 256.042 57.1023 256.156 56.5554C256.28 56.0085 256.2 55.4617 255.927 55.0383L255.847 54.906L255.997 54.8795C256.924 54.7208 257.673 54.2268 258.185 53.6888C258.714 53.1419 259.005 52.5421 259.182 52.0394C259.508 51.0074 259.34 50.3811 259.384 50.3811L259.358 50.3635Z" fill="#455A64"/>
<path d="M261.457 80.3175C263.16 80.2205 264.871 80.3352 266.547 80.6527L266.573 80.688C266.661 81.8435 266.626 83.1489 265.815 83.978C265.206 84.5954 264.245 84.7983 263.415 84.5513C262.586 84.3044 261.96 83.7575 261.625 82.9637C261.29 82.1698 261.378 81.1555 261.449 80.3175H261.457Z" fill="#FF9A6C"/>
<path d="M264.88 84.4101C264.862 84.3307 264.227 84.7365 263.265 84.3572C262.798 84.1719 262.304 83.8015 261.995 83.2193C261.678 82.6372 261.545 81.8963 261.59 81.1113C261.598 80.9349 261.616 80.6791 261.651 80.5732C261.687 80.5291 261.616 80.5732 261.678 80.5556H261.942C262.322 80.582 262.683 80.5997 263.045 80.6173C263.698 80.6438 264.324 80.6614 264.915 80.6791C265.982 80.7055 266.644 80.6879 266.644 80.6261C266.644 80.5644 265.991 80.4674 264.933 80.3704C264.342 80.3174 263.724 80.2645 263.071 80.2116C262.71 80.1851 262.348 80.1587 261.969 80.1322C261.863 80.1322 261.792 80.1146 261.66 80.1146C261.519 80.0881 261.263 80.2645 261.246 80.4233C261.175 80.6967 261.184 80.8555 261.157 81.0848C261.113 81.9227 261.263 82.7607 261.651 83.4134C262.022 84.0749 262.63 84.4895 263.168 84.6483C263.706 84.8247 264.192 84.7629 264.483 84.6659C264.783 84.5601 264.906 84.4366 264.888 84.4189L264.88 84.4101Z" fill="#263238"/>
<path d="M229.951 111.974L196.557 121.8L185.566 107.387C185.637 109.081 171.974 106.937 171.974 106.937C181.712 130.32 187.031 138.135 188.477 138.806C192.147 140.517 219.931 140.27 222.127 139.749C224.323 139.22 244.372 136.362 244.372 136.362L240.703 108.287L232.368 110.924C231.53 111.189 230.718 111.542 229.951 111.983V111.974Z" fill="#455A64"/>
<path d="M310.613 175.798C308.691 168.522 304.439 151.93 304.439 151.93L295.68 100.402L276.037 100.56L274.406 97.1116C274.062 96.3795 273.259 95.9649 272.465 96.1148L251.649 99.8282C250.696 99.9958 250.044 100.896 250.176 101.848L250.564 104.635L234.705 110.519L232.985 133.593L245.748 186.145L246.533 193.545C246.718 195.292 247.636 196.888 249.065 197.964L251.34 199.675L308.885 186.392L310.305 182.493C311.09 180.35 311.196 178.012 310.613 175.798Z" fill="#455A64"/>
<path d="M250.326 198.44L250.864 206.22L312.378 191.878L310.181 181.893L250.326 198.44Z" fill="#455A64"/>
<path d="M304.518 186.771C304.386 186.788 304.439 188.2 304.624 189.937C304.818 191.675 305.074 193.069 305.206 193.051C305.339 193.033 305.286 191.622 305.101 189.884C304.907 188.147 304.651 186.753 304.518 186.771Z" fill="#263238"/>
<path d="M294.737 189.038C294.604 189.064 294.763 190.493 295.09 192.231C295.416 193.968 295.778 195.353 295.91 195.335C296.042 195.309 295.883 193.88 295.557 192.142C295.231 190.405 294.869 189.02 294.737 189.038Z" fill="#263238"/>
<path d="M284.478 192.063C284.346 192.09 284.479 193.448 284.778 195.098C285.078 196.747 285.422 198.07 285.555 198.053C285.687 198.026 285.555 196.668 285.255 195.018C284.955 193.369 284.611 192.046 284.487 192.063H284.478Z" fill="#263238"/>
<path d="M271.671 195.053C271.539 195.08 271.715 196.615 272.068 198.484C272.412 200.354 272.8 201.854 272.933 201.827C273.065 201.801 272.888 200.266 272.536 198.396C272.192 196.526 271.804 195.027 271.671 195.053Z" fill="#263238"/>
<path d="M259.684 197.797C259.561 197.832 259.843 199.27 260.328 200.998C260.813 202.736 261.307 204.112 261.431 204.077C261.554 204.041 261.272 202.604 260.787 200.875C260.302 199.137 259.808 197.761 259.684 197.797Z" fill="#263238"/>
<path d="M295.672 100.41L297.894 100.454C300.593 100.507 303.24 101.248 305.568 102.615L324.973 113.941L320.263 85.8389L335.575 82.7076C335.575 82.7076 344.572 119.251 344.546 125.046C344.493 136.724 335.513 140.746 326.525 137.985C323.844 137.165 291.773 122.567 291.773 122.567L295.672 100.419V100.41Z" fill="#455A64"/>
<path d="M304.007 155.3C304.139 155.282 302.719 144.336 300.832 130.849C298.953 117.363 297.321 106.443 297.189 106.461C297.056 106.479 298.477 117.425 300.364 130.92C302.243 144.406 303.875 155.326 304.007 155.308V155.3Z" fill="#263238"/>
<path d="M290.212 150.14C290.212 150.14 290.097 150.254 289.921 150.51C289.718 150.81 289.462 151.172 289.162 151.613C288.474 152.636 287.539 154.012 286.41 155.688C284.082 159.119 280.8 163.829 277.034 168.909C273.259 173.99 269.704 178.488 267.085 181.717C265.806 183.287 264.765 184.575 263.98 185.527L263.142 186.568C262.957 186.806 262.86 186.938 262.877 186.956C262.895 186.974 263.01 186.859 263.212 186.63C263.459 186.365 263.75 186.039 264.112 185.642C264.888 184.777 265.991 183.507 267.332 181.92C270.013 178.744 273.621 174.272 277.404 169.183C281.18 164.094 284.417 159.348 286.684 155.864C287.813 154.126 288.712 152.698 289.312 151.71C289.585 151.251 289.815 150.872 290 150.563C290.15 150.298 290.221 150.157 290.212 150.148V150.14Z" fill="#263238"/>
<path d="M283.482 137.641C283.482 137.641 283.2 138.021 282.776 138.753C282.309 139.564 281.7 140.596 280.977 141.849C279.46 144.46 277.343 148.058 274.908 151.975C272.474 155.891 270.19 159.384 268.514 161.898C267.72 163.097 267.049 164.103 266.538 164.879C266.07 165.584 265.832 165.99 265.859 166.008C265.885 166.025 266.176 165.664 266.688 164.985C267.199 164.314 267.923 163.318 268.787 162.083C270.534 159.613 272.871 156.138 275.305 152.222C277.74 148.296 279.821 144.671 281.268 142.007C281.991 140.676 282.565 139.591 282.935 138.841C283.314 138.082 283.508 137.659 283.482 137.641Z" fill="#263238"/>
<path d="M275.535 100.595C275.499 100.525 274.229 101.151 272.103 101.963C269.978 102.774 266.97 103.709 263.548 104.265C260.125 104.82 256.968 104.882 254.701 104.785C252.425 104.688 251.032 104.494 251.014 104.573C251.014 104.609 251.358 104.679 251.984 104.794C252.61 104.909 253.537 105.032 254.674 105.12C256.959 105.305 260.152 105.288 263.618 104.732C267.085 104.168 270.119 103.171 272.218 102.271C273.277 101.821 274.115 101.425 274.67 101.107C275.235 100.798 275.535 100.622 275.517 100.587L275.535 100.595Z" fill="#263238"/>
<g opacity="0.3">
<path d="M287.001 155.37C285.422 167.102 277.457 177.765 266.661 182.608L287.001 155.37Z" fill="black"/>
</g>
<path d="M231.053 123.299C230.921 123.334 232.482 130.17 234.537 138.567C236.592 146.973 238.357 153.756 238.489 153.73C238.612 153.694 237.06 146.858 235.005 138.461C232.95 130.064 231.186 123.273 231.053 123.308V123.299Z" fill="#263238"/>
<path d="M181.73 97.9761C181.73 97.9761 183.626 97.5791 184.561 99.2109C185.496 100.843 186.387 104.574 186.299 106.4C186.299 106.4 188.989 106.867 189.086 107.97C189.183 109.072 188.521 110.148 185.937 110.113C185.937 110.113 184.217 113.376 182.541 112.221C180.865 111.066 181.394 109.716 181.394 109.716C181.394 109.716 179.86 112.256 177.487 108.993C177.487 108.993 176.437 109.813 175.264 109.522C174.109 109.24 173.641 108.437 173.641 108.437C173.641 108.437 172.177 109.24 171.322 108.199C170.466 107.158 167.652 102.827 167.185 101.425C166.717 100.022 167.149 98.1613 168.34 97.4115C169.531 96.6618 171.524 97.3586 171.524 97.3586C171.524 97.3586 173.394 95.4005 175.679 96.9617C175.679 96.9617 179.031 93.9892 181.721 97.9672L181.73 97.9761Z" fill="#FFBF9D"/>
<path d="M171.03 101.266C170.898 101.319 171.463 102.933 172.239 104.864C172.627 105.835 172.953 106.717 173.165 107.361C173.377 108.004 173.465 108.419 173.535 108.41C173.597 108.41 173.624 107.969 173.491 107.281C173.359 106.593 173.077 105.676 172.689 104.697C171.904 102.748 171.145 101.23 171.03 101.275V101.266Z" fill="#FF9A6C"/>
<path d="M174.761 100.366C174.638 100.401 175.088 102.377 175.811 104.776C176.534 107.175 177.355 109.045 177.478 108.992C177.602 108.948 176.975 107.025 176.261 104.635C175.538 102.245 174.885 100.331 174.753 100.366H174.761Z" fill="#FF9A6C"/>
<path d="M179.675 100.419C179.542 100.472 180.301 102.51 180.892 105.103C181.174 106.399 181.447 107.599 181.483 108.437C181.527 109.292 181.236 109.769 181.306 109.804C181.342 109.848 181.774 109.381 181.818 108.446C181.862 107.52 181.641 106.32 181.359 104.997C180.759 102.351 179.789 100.366 179.675 100.419Z" fill="#FF9A6C"/>
<path d="M185.275 101.01C185.125 101.054 185.769 103.136 186.016 105.756C186.131 107.061 186.105 108.278 186.043 109.116C185.972 109.963 185.628 110.395 185.681 110.439C185.716 110.492 186.202 110.086 186.369 109.169C186.528 108.278 186.598 107.07 186.484 105.712C186.219 103.004 185.364 100.975 185.267 101.01H185.275Z" fill="#FF9A6C"/>
</svg>
