<svg width="367" height="376" viewBox="0 0 367 376" fill="none" xmlns="http://www.w3.org/2000/svg">
<path d="M79.7011 141.889H6.1346V375.05H79.7011V141.889Z" fill="#F5F5F5"/>
<path d="M79.7108 141.889H42.9227V374.414H79.7108V141.889Z" fill="#EBEBEB"/>
<path d="M40.5113 119H14.5359V141.889H40.5113V119Z" fill="#F5F5F5"/>
<path d="M40.521 119H34.3286V141.889H40.521V119Z" fill="#EBEBEB"/>
<path d="M-1.52588e-05 141.889V140.558H81.8618V141.889" fill="#E0E0E0"/>
<path d="M26.8918 151.872H20.6608V165H26.8918V151.872Z" fill="#FAFAFA"/>
<path d="M42.9227 170.16C42.9227 170.295 34.6854 170.41 24.5287 170.41C14.3719 170.41 6.1346 170.295 6.1346 170.16C6.1346 170.025 14.3719 169.909 24.5287 169.909C34.6854 169.909 42.9227 170.025 42.9227 170.16Z" fill="#E0E0E0"/>
<path d="M63.9982 151.872H57.7672V165H63.9982V151.872Z" fill="#E0E0E0"/>
<path d="M80.0291 170.16C80.0291 170.295 71.7918 170.411 61.6351 170.411C51.4783 170.411 43.241 170.295 43.241 170.16C43.241 170.025 51.4783 169.909 61.6351 169.909C71.7918 169.909 80.0291 170.025 80.0291 170.16Z" fill="#E0E0E0"/>
<path d="M63.9982 177.943H57.7672V191.071H63.9982V177.943Z" fill="#E0E0E0"/>
<path d="M80.0291 196.232C80.0291 196.367 71.7918 196.482 61.6351 196.482C51.4783 196.482 43.241 196.367 43.241 196.232C43.241 196.096 51.4783 195.981 61.6351 195.981C71.7918 195.981 80.0291 196.096 80.0291 196.232Z" fill="#E0E0E0"/>
<path d="M63.9982 204.797H57.7672V217.925H63.9982V204.797Z" fill="#E0E0E0"/>
<path d="M80.0291 223.085C80.0291 223.22 71.7918 223.336 61.6351 223.336C51.4783 223.336 43.241 223.22 43.241 223.085C43.241 222.95 51.4783 222.834 61.6351 222.834C71.7918 222.834 80.0291 222.95 80.0291 223.085Z" fill="#E0E0E0"/>
<path d="M63.9982 231.66H57.7672V244.788H63.9982V231.66Z" fill="#E0E0E0"/>
<path d="M80.0291 249.948C80.0291 250.083 71.7918 250.199 61.6351 250.199C51.4783 250.199 43.241 250.083 43.241 249.948C43.241 249.813 51.4783 249.697 61.6351 249.697C71.7918 249.697 80.0291 249.813 80.0291 249.948Z" fill="#E0E0E0"/>
<path d="M63.9982 257.751H57.7672V270.879H63.9982V257.751Z" fill="#E0E0E0"/>
<path d="M80.0291 276.029C80.0291 276.165 71.7918 276.28 61.6351 276.28C51.4783 276.28 43.241 276.165 43.241 276.029C43.241 275.894 51.4783 275.779 61.6351 275.779C71.7918 275.779 80.0291 275.894 80.0291 276.029Z" fill="#E0E0E0"/>
<path d="M63.9982 283.939H57.7672V297.066H63.9982V283.939Z" fill="#E0E0E0"/>
<path d="M63.9982 310.484H57.7672V323.611H63.9982V310.484Z" fill="#E0E0E0"/>
<path d="M80.0291 302.227C80.0291 302.362 71.7918 302.478 61.6351 302.478C51.4783 302.478 43.241 302.362 43.241 302.227C43.241 302.092 51.4783 301.976 61.6351 301.976C71.7918 301.976 80.0291 302.092 80.0291 302.227Z" fill="#E0E0E0"/>
<path d="M26.8918 178.339H20.6608V191.467H26.8918V178.339Z" fill="#FAFAFA"/>
<path d="M42.9227 196.628C42.9227 196.763 34.6854 196.878 24.5287 196.878C14.3719 196.878 6.1346 196.763 6.1346 196.628C6.1346 196.493 14.3719 196.377 24.5287 196.377C34.6854 196.377 42.9227 196.493 42.9227 196.628Z" fill="#E0E0E0"/>
<path d="M26.8918 204.807H20.6608V217.934H26.8918V204.807Z" fill="#FAFAFA"/>
<path d="M42.9227 223.095C42.9227 223.23 34.6854 223.346 24.5287 223.346C14.3719 223.346 6.1346 223.23 6.1346 223.095C6.1346 222.96 14.3719 222.844 24.5287 222.844C34.6854 222.844 42.9227 222.96 42.9227 223.095Z" fill="#E0E0E0"/>
<path d="M26.8918 231.274H20.6608V244.401H26.8918V231.274Z" fill="#FAFAFA"/>
<path d="M42.9227 249.562C42.9227 249.697 34.6854 249.813 24.5287 249.813C14.3719 249.813 6.1346 249.697 6.1346 249.562C6.1346 249.427 14.3719 249.312 24.5287 249.312C34.6854 249.312 42.9227 249.427 42.9227 249.562Z" fill="#E0E0E0"/>
<path d="M26.8918 257.751H20.6608V270.879H26.8918V257.751Z" fill="#FAFAFA"/>
<path d="M42.9227 276.03C42.9227 276.165 34.6854 276.28 24.5287 276.28C14.3719 276.28 6.1346 276.165 6.1346 276.03C6.1346 275.894 14.3719 275.779 24.5287 275.779C34.6854 275.779 42.9227 275.894 42.9227 276.03Z" fill="#E0E0E0"/>
<path d="M26.8918 284.219H20.6608V297.346H26.8918V284.219Z" fill="#FAFAFA"/>
<path d="M42.9227 302.497C42.9227 302.632 34.6854 302.747 24.5287 302.747C14.3719 302.747 6.1346 302.632 6.1346 302.497C6.1346 302.362 14.3719 302.246 24.5287 302.246C34.6854 302.246 42.9227 302.362 42.9227 302.497Z" fill="#E0E0E0"/>
<path d="M26.8918 310.686H20.6608V323.813H26.8918V310.686Z" fill="#FAFAFA"/>
<path d="M166.679 99.4381H79.7338V374.982H166.679V99.4381Z" fill="#F5F5F5"/>
<path d="M166.679 103.055H123.206V374.992H166.679V103.055Z" fill="#EBEBEB"/>
<path d="M120.37 76H89.6687V103.056H120.37V76Z" fill="#F5F5F5"/>
<path d="M120.371 76H113.05V103.056H120.371V76Z" fill="#EBEBEB"/>
<path d="M72.49 103.056V101.474H169.225V103.056" fill="#E0E0E0"/>
<path d="M104.262 114.852H96.9029V130.372H104.262V114.852Z" fill="#FAFAFA"/>
<path d="M123.206 136.458C123.206 136.622 113.474 136.757 101.475 136.757C89.4758 136.757 79.7338 136.622 79.7338 136.458C79.7338 136.294 89.4662 136.159 101.475 136.159C113.484 136.159 123.206 136.294 123.206 136.458Z" fill="#E0E0E0"/>
<path d="M148.111 114.852H140.752V130.371H148.111V114.852Z" fill="#E0E0E0"/>
<path d="M167.055 136.457C167.055 136.621 157.323 136.756 145.324 136.756C133.325 136.756 123.583 136.621 123.583 136.457C123.583 136.293 133.315 136.158 145.324 136.158C157.332 136.158 167.055 136.293 167.055 136.457Z" fill="#E0E0E0"/>
<path d="M148.111 145.66H140.752V161.179H148.111V145.66Z" fill="#E0E0E0"/>
<path d="M167.055 167.266C167.055 167.43 157.323 167.565 145.324 167.565C133.325 167.565 123.583 167.43 123.583 167.266C123.583 167.102 133.315 166.967 145.324 166.967C157.332 166.967 167.055 167.102 167.055 167.266Z" fill="#E0E0E0"/>
<path d="M148.111 177.394H140.752V192.914H148.111V177.394Z" fill="#E0E0E0"/>
<path d="M167.055 199.01C167.055 199.174 157.323 199.309 145.324 199.309C133.325 199.309 123.583 199.174 123.583 199.01C123.583 198.846 133.315 198.711 145.324 198.711C157.332 198.711 167.055 198.846 167.055 199.01Z" fill="#E0E0E0"/>
<path d="M148.111 209.137H140.752V224.657H148.111V209.137Z" fill="#E0E0E0"/>
<path d="M167.055 230.743C167.055 230.907 157.323 231.042 145.324 231.042C133.325 231.042 123.583 230.907 123.583 230.743C123.583 230.579 133.315 230.444 145.324 230.444C157.332 230.444 167.055 230.579 167.055 230.743Z" fill="#E0E0E0"/>
<path d="M148.111 239.965H140.752V255.484H148.111V239.965Z" fill="#E0E0E0"/>
<path d="M167.055 261.57C167.055 261.734 157.323 261.869 145.324 261.869C133.325 261.869 123.583 261.734 123.583 261.57C123.583 261.406 133.315 261.271 145.324 261.271C157.332 261.271 167.055 261.406 167.055 261.57Z" fill="#E0E0E0"/>
<path d="M148.111 270.927H140.752V286.446H148.111V270.927Z" fill="#E0E0E0"/>
<path d="M148.111 302.284H140.752V317.804H148.111V302.284Z" fill="#E0E0E0"/>
<path d="M167.055 292.532C167.055 292.696 157.323 292.831 145.324 292.831C133.325 292.831 123.583 292.696 123.583 292.532C123.583 292.368 133.315 292.233 145.324 292.233C157.332 292.233 167.055 292.368 167.055 292.532Z" fill="#E0E0E0"/>
<path d="M104.262 146.133H96.9029V161.652H104.262V146.133Z" fill="#FAFAFA"/>
<path d="M123.206 167.738C123.206 167.902 113.474 168.037 101.475 168.037C89.4758 168.037 79.7338 167.902 79.7338 167.738C79.7338 167.574 89.4662 167.439 101.475 167.439C113.484 167.439 123.206 167.574 123.206 167.738Z" fill="#E0E0E0"/>
<path d="M104.262 177.403H96.9029V192.923H104.262V177.403Z" fill="#FAFAFA"/>
<path d="M123.206 199.019C123.206 199.183 113.474 199.318 101.475 199.318C89.4758 199.318 79.7338 199.183 79.7338 199.019C79.7338 198.855 89.4662 198.72 101.475 198.72C113.484 198.72 123.206 198.855 123.206 199.019Z" fill="#E0E0E0"/>
<path d="M104.262 208.684H96.9029V224.204H104.262V208.684Z" fill="#FAFAFA"/>
<path d="M123.206 230.3C123.206 230.464 113.474 230.599 101.475 230.599C89.4758 230.599 79.7338 230.464 79.7338 230.3C79.7338 230.136 89.4662 230.001 101.475 230.001C113.484 230.001 123.206 230.136 123.206 230.3Z" fill="#E0E0E0"/>
<path d="M104.262 239.964H96.9029V255.484H104.262V239.964Z" fill="#FAFAFA"/>
<path d="M123.206 261.571C123.206 261.735 113.474 261.87 101.475 261.87C89.4758 261.87 79.7338 261.735 79.7338 261.571C79.7338 261.407 89.4662 261.272 101.475 261.272C113.484 261.272 123.206 261.407 123.206 261.571Z" fill="#E0E0E0"/>
<path d="M104.262 271.245H96.9029V286.764H104.262V271.245Z" fill="#FAFAFA"/>
<path d="M123.206 292.851C123.206 293.015 113.474 293.15 101.475 293.15C89.4758 293.15 79.7338 293.015 79.7338 292.851C79.7338 292.687 89.4662 292.552 101.475 292.552C113.484 292.552 123.206 292.687 123.206 292.851Z" fill="#E0E0E0"/>
<path d="M104.262 302.525H96.9029V318.045H104.262V302.525Z" fill="#FAFAFA"/>
<path d="M261.49 144H174.49V374H261.49V144Z" fill="#F5F5F5"/>
<path d="M261.49 148H218.49V374H261.49V148Z" fill="#EBEBEB"/>
<path d="M215.37 121H184.669V148.056H215.37V121Z" fill="#F5F5F5"/>
<path d="M215.37 121H208.05V148.056H215.37V121Z" fill="#EBEBEB"/>
<path d="M167.49 148.056V146.474H264.225V148.056" fill="#E0E0E0"/>
<path d="M199.262 159.852H191.903V175.372H199.262V159.852Z" fill="#FAFAFA"/>
<path d="M218.206 181.458C218.206 181.622 208.474 181.757 196.475 181.757C184.476 181.757 174.734 181.622 174.734 181.458C174.734 181.294 184.466 181.159 196.475 181.159C208.484 181.159 218.206 181.294 218.206 181.458Z" fill="#E0E0E0"/>
<path d="M243.111 159.852H235.752V175.371H243.111V159.852Z" fill="#E0E0E0"/>
<path d="M262.055 181.457C262.055 181.621 252.323 181.756 240.324 181.756C228.325 181.756 218.583 181.621 218.583 181.457C218.583 181.293 228.315 181.158 240.324 181.158C252.332 181.158 262.055 181.293 262.055 181.457Z" fill="#E0E0E0"/>
<path d="M243.111 190.66H235.752V206.179H243.111V190.66Z" fill="#E0E0E0"/>
<path d="M262.055 212.266C262.055 212.43 252.323 212.565 240.324 212.565C228.325 212.565 218.583 212.43 218.583 212.266C218.583 212.102 228.315 211.967 240.324 211.967C252.332 211.967 262.055 212.102 262.055 212.266Z" fill="#E0E0E0"/>
<path d="M243.111 222.394H235.752V237.914H243.111V222.394Z" fill="#E0E0E0"/>
<path d="M262.055 244.01C262.055 244.174 252.323 244.309 240.324 244.309C228.325 244.309 218.583 244.174 218.583 244.01C218.583 243.846 228.315 243.711 240.324 243.711C252.332 243.711 262.055 243.846 262.055 244.01Z" fill="#E0E0E0"/>
<path d="M243.111 254.137H235.752V269.657H243.111V254.137Z" fill="#E0E0E0"/>
<path d="M262.055 275.743C262.055 275.907 252.323 276.042 240.324 276.042C228.325 276.042 218.583 275.907 218.583 275.743C218.583 275.579 228.315 275.444 240.324 275.444C252.332 275.444 262.055 275.579 262.055 275.743Z" fill="#E0E0E0"/>
<path d="M243.111 284.964H235.752V300.484H243.111V284.964Z" fill="#E0E0E0"/>
<path d="M262.055 306.57C262.055 306.734 252.323 306.869 240.324 306.869C228.325 306.869 218.583 306.734 218.583 306.57C218.583 306.406 228.315 306.271 240.324 306.271C252.332 306.271 262.055 306.406 262.055 306.57Z" fill="#E0E0E0"/>
<path d="M243.111 315.927H235.752V331.446H243.111V315.927Z" fill="#E0E0E0"/>
<path d="M243.111 347.284H235.752V362.804H243.111V347.284Z" fill="#E0E0E0"/>
<path d="M262.055 337.532C262.055 337.696 252.323 337.831 240.324 337.831C228.325 337.831 218.583 337.696 218.583 337.532C218.583 337.368 228.315 337.233 240.324 337.233C252.332 337.233 262.055 337.368 262.055 337.532Z" fill="#E0E0E0"/>
<path d="M199.262 191.133H191.903V206.652H199.262V191.133Z" fill="#FAFAFA"/>
<path d="M218.206 212.738C218.206 212.902 208.474 213.037 196.475 213.037C184.476 213.037 174.734 212.902 174.734 212.738C174.734 212.574 184.466 212.439 196.475 212.439C208.484 212.439 218.206 212.574 218.206 212.738Z" fill="#E0E0E0"/>
<path d="M199.262 222.403H191.903V237.923H199.262V222.403Z" fill="#FAFAFA"/>
<path d="M218.206 244.019C218.206 244.183 208.474 244.318 196.475 244.318C184.476 244.318 174.734 244.183 174.734 244.019C174.734 243.855 184.466 243.72 196.475 243.72C208.484 243.72 218.206 243.855 218.206 244.019Z" fill="#E0E0E0"/>
<path d="M199.262 253.684H191.903V269.204H199.262V253.684Z" fill="#FAFAFA"/>
<path d="M218.206 275.3C218.206 275.464 208.474 275.599 196.475 275.599C184.476 275.599 174.734 275.464 174.734 275.3C174.734 275.136 184.466 275.001 196.475 275.001C208.484 275.001 218.206 275.136 218.206 275.3Z" fill="#E0E0E0"/>
<path d="M199.262 284.964H191.903V300.484H199.262V284.964Z" fill="#FAFAFA"/>
<path d="M218.206 306.571C218.206 306.735 208.474 306.87 196.475 306.87C184.476 306.87 174.734 306.735 174.734 306.571C174.734 306.407 184.466 306.272 196.475 306.272C208.484 306.272 218.206 306.407 218.206 306.571Z" fill="#E0E0E0"/>
<path d="M199.262 316.245H191.903V331.764H199.262V316.245Z" fill="#FAFAFA"/>
<path d="M218.206 337.851C218.206 338.015 208.474 338.15 196.475 338.15C184.476 338.15 174.734 338.015 174.734 337.851C174.734 337.687 184.466 337.552 196.475 337.552C208.484 337.552 218.206 337.687 218.206 337.851Z" fill="#E0E0E0"/>
<path d="M199.262 347.525H191.903V363.045H199.262V347.525Z" fill="#FAFAFA"/>
<path d="M165.939 27.8557C166.838 21.3871 157.602 16.0743 150.648 15.5139C147.336 15.2453 143.895 15.7474 140.761 14.6732C133.961 12.3379 131.241 3.66245 124.606 0.895166C119.651 -1.17154 113.939 0.673315 109.125 3.05528C104.312 5.44892 99.5696 8.44973 94.1886 8.78834C89.5172 9.08025 84.4436 7.37551 80.3517 9.62903C77.3005 11.3104 75.704 14.7783 72.9011 16.8216C70.1574 18.8183 66.574 19.2503 63.168 19.4254C59.762 19.6123 56.226 19.6473 53.1274 21.0484C50.0289 22.4496 47.4508 25.6956 48.1012 29L165.939 27.8557Z" fill="#F5F5F5"/>
<path d="M283.939 88.8557C284.838 82.3871 275.602 77.0743 268.648 76.5139C265.336 76.2453 261.895 76.7474 258.761 75.6732C251.961 73.3379 249.241 64.6624 242.606 61.8952C237.651 59.8285 231.939 61.6733 227.125 64.0553C222.312 66.4489 217.57 69.4497 212.189 69.7883C207.517 70.0802 202.444 68.3755 198.352 70.629C195.301 72.3104 193.704 75.7783 190.901 77.8216C188.157 79.8183 184.574 80.2503 181.168 80.4254C177.762 80.6123 174.226 80.6473 171.127 82.0484C168.029 83.4496 165.451 86.6956 166.101 90L283.939 88.8557Z" fill="#F5F5F5"/>
<path d="M366.688 36.2375C367.17 32.6976 362.184 29.7943 358.431 29.4856C356.647 29.3409 354.785 29.611 353.088 29.0226C349.413 27.7397 347.947 23.0038 344.368 21.4894C341.687 20.3609 338.61 21.364 336.006 22.6758C333.411 23.978 330.845 25.6274 327.942 25.8106C325.415 25.9746 322.675 25.039 320.467 26.2736C318.817 27.19 317.959 29.0901 316.444 30.209C314.959 31.299 313.03 31.5304 311.188 31.6365C309.345 31.733 307.445 31.7523 305.767 32.5239C304.088 33.2956 302.699 35.0607 303.056 36.8741L366.688 36.2471V36.2375Z" fill="#F5F5F5"/>
</svg>
