<svg width="40" height="40" viewBox="0 0 40 40" fill="none" xmlns="http://www.w3.org/2000/svg">
<path fill-rule="evenodd" clip-rule="evenodd" d="M20 35.2C10.2798 35.2 2.39998 27.3202 2.39998 17.6C2.39998 7.87979 10.2798 0 20 0C29.7202 0 37.6 7.87979 37.6 17.6C37.6 23.0731 35.1018 27.9627 31.1835 31.1907C31.1772 31.1958 31.1828 31.2058 31.1904 31.2032V31.2032C31.1951 31.2016 31.2 31.2051 31.2 31.21V36.6687C31.2 38.1965 29.5896 39.1882 28.2253 38.5004L22.0658 35.3955C21.7256 35.2239 21.3444 35.1535 20.9639 35.174C20.6448 35.1913 20.3234 35.2 20 35.2Z" fill="#27A376"/>
<path fill-rule="evenodd" clip-rule="evenodd" d="M25.9536 13.5333C26.2206 13.8003 26.2206 14.2332 25.9536 14.5003L19.116 21.3379C18.8489 21.6049 18.416 21.6049 18.149 21.3379L14.7302 17.9191C14.4632 17.652 14.4632 17.2191 14.7302 16.9521C14.9972 16.6851 15.4301 16.6851 15.6972 16.9521L18.6325 19.8874L24.9866 13.5333C25.2536 13.2663 25.6865 13.2663 25.9536 13.5333Z" fill="white"/>
</svg>
