<svg width="40" height="40" viewBox="0 0 40 40" fill="none" xmlns="http://www.w3.org/2000/svg">
<path fill-rule="evenodd" clip-rule="evenodd" d="M20 35.2C10.2798 35.2 2.39998 27.3202 2.39998 17.6C2.39998 7.87979 10.2798 0 20 0C29.7202 0 37.6 7.87979 37.6 17.6C37.6 23.0731 35.1018 27.9627 31.1835 31.1907C31.1772 31.1958 31.1828 31.2058 31.1904 31.2032V31.2032C31.1952 31.2016 31.2 31.2051 31.2 31.2101V36.6687C31.2 38.1965 29.5897 39.1882 28.2254 38.5004L22.0659 35.3955C21.7256 35.2239 21.3445 35.1535 20.964 35.174C20.6448 35.1913 20.3234 35.2 20 35.2Z" fill="#2F78EE"/>
<path fill-rule="evenodd" clip-rule="evenodd" d="M20 23.0767C16.8846 23.0767 14.359 20.5512 14.359 17.4357C14.359 14.3203 16.8846 11.7947 20 11.7947C23.1155 11.7947 25.6411 14.3203 25.6411 17.4357C25.6411 20.5512 23.1155 23.0767 20 23.0767ZM13.3334 17.4357C13.3334 21.1176 16.3181 24.1024 20 24.1024C23.6819 24.1024 26.6667 21.1176 26.6667 17.4357C26.6667 13.7538 23.6819 10.769 20 10.769C16.3181 10.769 13.3334 13.7538 13.3334 17.4357Z" fill="white"/>
<path fill-rule="evenodd" clip-rule="evenodd" d="M20 20.6836C20.2833 20.6836 20.5129 20.454 20.5129 20.1708V17.4357C20.5129 17.1525 20.2833 16.9229 20 16.9229C19.7168 16.9229 19.4872 17.1525 19.4872 17.4357V20.1708C19.4872 20.454 19.7168 20.6836 20 20.6836Z" fill="white"/>
<path fill-rule="evenodd" clip-rule="evenodd" d="M19.4872 14.7007C19.4872 14.9839 19.7168 15.2135 20 15.2135H20.0069C20.2901 15.2135 20.5197 14.9839 20.5197 14.7007C20.5197 14.4174 20.2901 14.1878 20.0069 14.1878H20C19.7168 14.1878 19.4872 14.4174 19.4872 14.7007Z" fill="white"/>
</svg>
